<svg xmlns="http://www.w3.org/2000/svg" width="72.05" height="75.594" viewBox="0 0 72.05 75.594"><path d="M46.656 61.42H25.395a.591.591 0 01-.591-.591V25.394a.591.591 0 011.181 0v34.844h20.08V25.394a.591.591 0 011.181 0v35.435a.59.59 0 01-.59.591z" fill="#263238"/><path d="M43.703 66.145H28.344a.586.586 0 01-.5-.278l-2.953-4.725a.59.59 0 01.5-.9h21.261a.59.59 0 01.5.9l-2.953 4.725a.59.59 0 01-.496.278zm-15.027-1.181h14.7l2.215-3.544h-19.13z" fill="#263238"/><path d="M21.989.59h28.073a2.5 2.5 0 012.5 2.5v14.942a5 5 0 01-5 5H24.489a5 5 0 01-5-5V3.09a2.5 2.5 0 012.5-2.5z" fill="#59d8fd"/><path d="M46.656 23.623H25.395a6.5 6.5 0 01-6.5-6.5V3.54a3.547 3.547 0 013.544-3.544h27.17a3.546 3.546 0 013.544 3.544v13.583a6.5 6.5 0 01-6.497 6.5zM22.439 1.181a2.365 2.365 0 00-2.362 2.362v13.583a5.322 5.322 0 005.315 5.315h21.261a5.321 5.321 0 005.315-5.315V3.54a2.365 2.365 0 00-2.362-2.362z" fill="#263238"/><path d="M47.245 20.08h-3.543a.591.591 0 010-1.181h3.543a1.773 1.773 0 001.772-1.772v-3.544a.591.591 0 011.181 0v3.544a2.956 2.956 0 01-2.953 2.953zM49.018 55.514h-2.362a.591.591 0 01-.591-.591v-8.268a.59.59 0 01.591-.591h2.362a1.774 1.774 0 011.772 1.772v5.906a1.774 1.774 0 01-1.772 1.772zm-1.772-1.181h1.772a.591.591 0 00.591-.591v-5.906a.591.591 0 00-.591-.591h-1.772zM25.395 55.514h-2.362a1.774 1.774 0 01-1.772-1.772v-5.906a1.774 1.774 0 011.772-1.772h2.362a.589.589 0 01.591.591v8.268a.59.59 0 01-.591.591zm-2.362-8.268a.592.592 0 00-.591.591v5.906a.592.592 0 00.591.591h1.768v-7.087zM36.026 75.594a3 3 0 01-3-3v-4.681a.591.591 0 011.181 0v4.681a1.815 1.815 0 103.63 0v-4.681a.591.591 0 011.181 0v4.681a3 3 0 01-2.992 3z" fill="#263238"/><g transform="translate(31.891 36.026)"><rect width="7.087" height="14.174" rx="1" transform="translate(.59 .59)" fill="#edfafe"/><path d="M6.496 15.355H1.771a1.774 1.774 0 01-1.772-1.772V1.771A1.774 1.774 0 011.771-.001h4.725a1.774 1.774 0 011.772 1.772v11.812a1.774 1.774 0 01-1.772 1.772zM1.771 1.181a.592.592 0 00-.591.591v11.812a.592.592 0 00.591.591h4.725a.591.591 0 00.591-.591V1.772a.591.591 0 00-.591-.591z" fill="#263238"/></g><path d="M52.562 6.496H19.49a.591.591 0 110-1.181h33.073a.591.591 0 010 1.181zM15.946 40.159h-1.181a.591.591 0 010-1.181h1.181a.591.591 0 010 1.181zM12.402 40.159H.591a.591.591 0 010-1.181h11.812a.591.591 0 010 1.181zM5.906 36.616H4.725a.591.591 0 010-1.181h1.181a.591.591 0 010 1.181zM20.08 36.616H8.269a.591.591 0 010-1.181h11.812a.591.591 0 010 1.181zM57.285 40.159h-1.181a.591.591 0 010-1.181h1.181a.591.591 0 010 1.181zM71.459 40.159H59.648a.591.591 0 010-1.181H71.46a.591.591 0 010 1.181zM67.327 36.616h-1.181a.591.591 0 010-1.181h1.181a.591.591 0 010 1.181z" fill="#263238"/><g><path d="M63.783 36.616H51.972a.591.591 0 110-1.181h11.812a.591.591 0 010 1.181z" fill="#263238"/></g></svg>