<svg xmlns="http://www.w3.org/2000/svg" width="79.41" height="66.392" viewBox="0 0 79.41 66.392"><path d="M75.505 40.356h-5.858a.651.651 0 110-1.3h5.858a2.606 2.606 0 002.6-2.6V3.906a2.606 2.606 0 00-2.6-2.6h-71.6a2.606 2.606 0 00-2.6 2.6v32.545a2.606 2.606 0 002.6 2.6h5.858a.651.651 0 110 1.3H3.905A3.909 3.909 0 010 36.446V3.906A3.91 3.91 0 013.905.001h71.6a3.909 3.909 0 013.905 3.905v32.545a3.908 3.908 0 01-3.905 3.905z" fill="#263238"/><path d="M40.357 26.036h-1.3a1.955 1.955 0 01-1.953-1.953v-7.811a1.955 1.955 0 011.953-1.953h1.3a1.954 1.954 0 011.953 1.953v7.811a1.954 1.954 0 01-1.953 1.953zm-1.3-10.414a.652.652 0 00-.651.651v7.811a.652.652 0 00.651.651h1.3a.651.651 0 00.651-.651v-7.811a.651.651 0 00-.651-.651z" fill="#263238"/><g transform="translate(5.207 9.113)"><rect width="27.338" height="20.829" rx="2.5" transform="translate(.652 .651)" fill="#59d8fd"/><path d="M24.734 22.131H3.905A3.909 3.909 0 010 18.226V3.906A3.91 3.91 0 013.905.001h20.829a3.909 3.909 0 013.907 3.904v14.32a3.909 3.909 0 01-3.907 3.906zM3.905 1.302a2.606 2.606 0 00-2.6 2.6v14.32a2.606 2.606 0 002.6 2.6h20.829a2.606 2.606 0 002.6-2.6V3.902a2.606 2.606 0 00-2.6-2.6z" fill="#263238"/></g><path d="M33.196 14.971H5.858a.651.651 0 010-1.3h27.338a.651.651 0 010 1.3zM33.196 20.178h-7.811a.651.651 0 110-1.3h7.811a.651.651 0 010 1.3zM13.669 20.178H5.858a.651.651 0 010-1.3h7.811a.651.651 0 010 1.3zM33.196 25.385H5.858a.651.651 0 010-1.3h27.338a.651.651 0 010 1.3zM21.48 22.022h-3.905a1.955 1.955 0 01-1.953-1.953v-1.3a1.955 1.955 0 011.953-1.953h3.905a1.954 1.954 0 011.953 1.953v1.3a1.954 1.954 0 01-1.953 1.953zm-3.905-3.905a.651.651 0 00-.651.651v1.3a.651.651 0 00.651.651h3.905a.651.651 0 00.651-.651v-1.3a.651.651 0 00-.651-.651z" fill="#263238"/><g transform="translate(45.563 9.113)"><rect width="27.338" height="20.829" rx="2.5" transform="translate(.652 .651)" fill="#59d8fd"/><path d="M24.734 22.131H3.905A3.909 3.909 0 010 18.226V3.906A3.91 3.91 0 013.905.001h20.829a3.909 3.909 0 013.907 3.904v14.32a3.909 3.909 0 01-3.907 3.906zM3.905 1.302a2.607 2.607 0 00-2.6 2.6v14.32a2.607 2.607 0 002.6 2.6h20.829a2.606 2.606 0 002.6-2.6V3.902a2.606 2.606 0 00-2.6-2.6z" fill="#263238"/></g><path d="M73.552 14.971H46.214a.651.651 0 010-1.3h27.338a.651.651 0 010 1.3zM73.552 20.178h-7.811a.651.651 0 010-1.3h7.811a.651.651 0 010 1.3zM54.025 20.178h-7.811a.651.651 0 110-1.3h7.811a.651.651 0 110 1.3zM73.552 25.385H46.214a.651.651 0 010-1.3h27.338a.651.651 0 010 1.3zM61.836 22.022h-3.905a1.955 1.955 0 01-1.953-1.953v-1.3a1.955 1.955 0 011.953-1.953h3.905a1.954 1.954 0 011.953 1.953v1.3a1.954 1.954 0 01-1.953 1.953zm-3.905-3.905a.652.652 0 00-.651.651v1.3a.652.652 0 00.651.651h3.905a.651.651 0 00.651-.651v-1.3a.651.651 0 00-.651-.651zM39.706 66.392a9.764 9.764 0 119.764-9.764 9.775 9.775 0 01-9.764 9.764zm0-18.225a8.462 8.462 0 108.462 8.462 8.472 8.472 0 00-8.462-8.462z" fill="#263238"/><path d="M42.237 61.438a2.271 2.271 0 01-1.612-.668l-5.061-5.063a2.277 2.277 0 010-3.222 2.333 2.333 0 013.221 0l5.063 5.063a2.276 2.276 0 010 3.221 2.256 2.256 0 01-1.609.669zm-5.063-8.318a.977.977 0 00-.69 1.668l5.061 5.063a.978.978 0 00.691.286.972.972 0 00.689-.286.976.976 0 000-1.381l-5.063-5.063a.973.973 0 00-.688-.288zM13.669 60.209a.65.65 0 01-.651-.651 2.5 2.5 0 00-1.1-1.968 3.577 3.577 0 010-5.835 2.313 2.313 0 000-3.933 3.567 3.567 0 010-5.827 2.5 2.5 0 001.095-1.964.651.651 0 011.3 0 3.744 3.744 0 01-1.507 2.913 2.307 2.307 0 000 3.928 3.574 3.574 0 010 5.832 2.315 2.315 0 000 3.937 3.752 3.752 0 011.507 2.917.65.65 0 01-.644.651zM22.782 60.209a.65.65 0 01-.651-.651 2.5 2.5 0 00-1.1-1.968 3.577 3.577 0 010-5.835 2.313 2.313 0 000-3.933 3.567 3.567 0 010-5.827 2.5 2.5 0 001.095-1.964.651.651 0 011.3 0 3.744 3.744 0 01-1.508 2.913 2.307 2.307 0 000 3.928 3.574 3.574 0 010 5.832 2.315 2.315 0 000 3.937 3.752 3.752 0 011.508 2.917.65.65 0 01-.644.651zM65.741 60.209a.65.65 0 01-.651-.651 3.745 3.745 0 011.509-2.913 2.309 2.309 0 000-3.927 3.572 3.572 0 010-5.832 2.317 2.317 0 000-3.937 3.747 3.747 0 01-1.509-2.917.651.651 0 011.3 0A2.508 2.508 0 0067.49 42a3.578 3.578 0 010 5.836 2.311 2.311 0 000 3.931 3.569 3.569 0 010 5.827 2.5 2.5 0 00-1.1 1.964.65.65 0 01-.649.651zM56.629 60.209a.65.65 0 01-.651-.651 3.745 3.745 0 011.509-2.913 2.309 2.309 0 000-3.927 3.572 3.572 0 010-5.832 2.317 2.317 0 000-3.937 3.747 3.747 0 01-1.509-2.917.651.651 0 011.3 0 2.508 2.508 0 001.1 1.968 3.578 3.578 0 010 5.836 2.311 2.311 0 000 3.931 3.569 3.569 0 010 5.827 2.5 2.5 0 00-1.1 1.964.65.65 0 01-.649.651zM52.723 40.356H26.687a.651.651 0 110-1.3h26.036a.651.651 0 010 1.3z" fill="#263238"/></svg>