<svg width="71" height="69" viewBox="0 0 71 69" fill="none" xmlns="http://www.w3.org/2000/svg">
<circle cx="47.2599" cy="44.8185" r="21.0373" fill="#59D8FE"/>
<ellipse cx="47.2567" cy="45.1241" rx="16.1591" ry="16.464" fill="white"/>
<path fill-rule="evenodd" clip-rule="evenodd" d="M47.0814 68.9987C33.9775 68.9987 23.3047 58.336 23.3047 45.222C23.3047 32.108 33.9775 21.4453 47.0814 21.4453C60.1954 21.4453 70.8581 32.108 70.8581 45.222C70.8581 58.336 60.1954 68.9987 47.0814 68.9987ZM47.0814 22.3734C34.4919 22.3734 24.2428 32.6225 24.2428 45.222C24.2428 57.8215 34.4919 68.0706 47.0814 68.0706C59.6809 68.0706 69.93 57.8215 69.93 45.222C69.93 32.6225 59.6809 22.3734 47.0814 22.3734V22.3734Z" fill="#263238"/>
<path fill-rule="evenodd" clip-rule="evenodd" d="M47.0754 66.6663C35.2526 66.6663 25.6289 57.0427 25.6289 45.2199C25.6289 33.3971 35.2526 23.7734 47.0754 23.7734C58.9082 23.7734 68.5218 33.3971 68.5218 45.2199C68.5218 57.0427 58.9082 66.6663 47.0754 66.6663ZM47.0754 24.7015C35.767 24.7015 26.5671 33.9116 26.5671 45.2199C26.5671 56.5282 35.767 65.7282 47.0754 65.7282C58.3937 65.7282 67.5937 56.5282 67.5937 45.2199C67.5937 33.9116 58.3937 24.7015 47.0754 24.7015Z" fill="#263238"/>
<path fill-rule="evenodd" clip-rule="evenodd" d="M47.0766 62.0094C37.8262 62.0094 30.3008 54.4738 30.3008 45.2234C30.3008 35.973 37.8262 28.4375 47.0766 28.4375C56.3371 28.4375 63.8625 35.973 63.8625 45.2234C63.8625 54.4738 56.3371 62.0094 47.0766 62.0094ZM47.0766 29.3757C38.3407 29.3757 31.2289 36.4875 31.2289 45.2234C31.2289 53.9594 38.3407 61.0712 47.0766 61.0712C55.8227 61.0712 62.9345 53.9594 62.9345 45.2234C62.9345 36.4875 55.8227 29.3757 47.0766 29.3757Z" fill="#263238"/>
<path fill-rule="evenodd" clip-rule="evenodd" d="M50.0029 29.6393C49.976 29.6393 49.9491 29.636 49.9222 29.6292C48.1165 29.3064 46.3108 29.2863 44.485 29.5889C44.3538 29.6091 44.2126 29.5687 44.1117 29.4779C44.0007 29.3972 43.9402 29.2661 43.9503 29.1249L43.9806 24.4139C43.9907 24.1819 44.1622 23.9801 44.3942 23.9499C46.3613 23.7078 48.2073 23.7279 50.1139 24.0003C50.3459 24.0306 50.5174 24.2323 50.5073 24.4643L50.477 29.1753C50.467 29.3165 50.4064 29.4477 50.3056 29.5384C50.2249 29.599 50.1139 29.6393 50.0029 29.6393ZM47.0775 28.4389C47.8946 28.4389 48.7218 28.4994 49.549 28.6306L49.5792 24.8678C48.0156 24.6762 46.5126 24.656 44.9187 24.8275L44.8784 28.5902C45.6148 28.4893 46.3613 28.4389 47.0775 28.4389V28.4389Z" fill="#263238"/>
<path fill-rule="evenodd" clip-rule="evenodd" d="M56.6949 32.5136C56.5941 32.5136 56.5033 32.4833 56.4226 32.4228C54.9397 31.3434 53.2954 30.5263 51.5401 30.0118C51.409 29.9816 51.3081 29.8807 51.2476 29.7596C51.1972 29.6285 51.1972 29.4873 51.2577 29.3662L53.3458 25.1395C53.4568 24.9276 53.6989 24.8268 53.9208 24.8974C55.7366 25.5127 57.4717 26.3702 59.0454 27.4294C59.237 27.5605 59.3077 27.8127 59.2068 28.0246L57.1085 32.2513C57.048 32.3724 56.9371 32.4631 56.8059 32.5035C56.7656 32.5102 56.7286 32.5136 56.6949 32.5136V32.5136ZM52.3371 29.2855C53.82 29.7798 55.2221 30.4658 56.5134 31.3535L58.1879 27.9842C56.8765 27.1368 55.4743 26.4509 54.0015 25.9162L52.3371 29.2855Z" fill="#263238"/>
<path fill-rule="evenodd" clip-rule="evenodd" d="M37.5782 32.434C37.5446 32.434 37.5076 32.4306 37.4673 32.4239C37.3361 32.3936 37.2252 32.2928 37.1646 32.1717C36.7107 31.2235 36.1054 29.9524 36.0348 29.8213C35.8936 29.5993 35.6616 29.1051 35.0967 27.9349C34.9958 27.723 35.0664 27.4708 35.2581 27.3397C36.862 26.2805 38.5971 25.4432 40.423 24.848C40.6348 24.7673 40.8769 24.8682 40.9778 25.0801L43.076 29.3169C43.1366 29.4379 43.1366 29.5893 43.0861 29.7103C43.0256 29.8415 42.9146 29.9322 42.7835 29.9726C41.0181 30.4669 39.3537 31.2739 37.8506 32.3533C37.7699 32.4037 37.6791 32.434 37.5782 32.434ZM36.7914 29.3169C36.9427 29.5489 37.1848 30.0634 37.7699 31.2739C39.0813 30.3963 40.4936 29.7103 41.9966 29.2362L40.3322 25.8568C38.8493 26.3814 37.437 27.0572 36.1155 27.9046C36.3677 28.4393 36.751 29.216 36.8015 29.3068L36.7914 29.3169Z" fill="#263238"/>
<path fill-rule="evenodd" clip-rule="evenodd" d="M32.8176 37.7795C32.7167 37.7795 32.6158 37.7391 32.525 37.6685C30.6689 36.1654 30.5378 36.0646 30.5277 36.0545C30.5277 36.0545 30.5075 36.0444 28.8632 34.7128C28.6715 34.5615 28.6312 34.3093 28.7522 34.1076C29.7408 32.4834 30.9513 30.9905 32.3535 29.6589C32.525 29.4975 32.7873 29.4874 32.9689 29.6387L36.6307 32.5944C36.7417 32.6852 36.8022 32.8163 36.8022 32.9475C36.8022 33.0887 36.7518 33.2198 36.6408 33.3106C35.2689 34.5212 34.1189 35.9435 33.2312 37.5374C33.1606 37.6584 33.0496 37.7391 32.9084 37.7694C32.8815 37.7761 32.8512 37.7795 32.8176 37.7795V37.7795ZM31.1127 35.3282C31.1127 35.3282 31.1329 35.3483 32.6864 36.6093C33.4934 35.2676 34.482 34.0571 35.622 32.9777L32.6965 30.6172C31.5768 31.7269 30.5983 32.9374 29.761 34.2387C31.0018 35.2475 31.1027 35.3181 31.1127 35.3282Z" fill="#263238"/>
<path fill-rule="evenodd" clip-rule="evenodd" d="M30.7963 44.7686C30.7559 44.7686 30.719 44.7652 30.6853 44.7585L26.0954 43.6791C25.8634 43.6287 25.7121 43.4168 25.7323 43.1848C25.9138 41.2782 26.3577 39.4019 27.0336 37.6164C27.1143 37.3945 27.3463 37.2734 27.5783 37.3239L32.1682 38.3932C32.2994 38.4234 32.4103 38.5142 32.4809 38.6353C32.5415 38.7664 32.5415 38.9076 32.491 39.0287C31.7748 40.7133 31.3612 42.4888 31.2603 44.3247C31.2502 44.466 31.1796 44.587 31.0687 44.6778C30.988 44.7383 30.8871 44.7686 30.7963 44.7686V44.7686ZM26.7108 42.862L30.3625 43.7195C30.5037 42.1559 30.8568 40.6326 31.4217 39.18L27.77 38.3326C27.2353 39.7953 26.8823 41.3186 26.7108 42.862Z" fill="#263238"/>
<path fill-rule="evenodd" clip-rule="evenodd" d="M32.7361 60.9661C32.6252 60.9661 32.5041 60.9257 32.4133 60.845C31.0111 59.5235 29.7905 58.0306 28.7919 56.3964C28.6708 56.2047 28.7111 55.9424 28.8927 55.8012L32.5243 52.7749C32.6252 52.6841 32.7664 52.6437 32.9076 52.674C33.0388 52.6942 33.1598 52.785 33.2304 52.906C34.1081 54.4797 35.2379 55.892 36.5997 57.0924C36.7006 57.1832 36.7611 57.3143 36.7611 57.4455C36.7611 57.5766 36.7006 57.7078 36.5997 57.7985L33.0388 60.8551C32.9581 60.9358 32.8471 60.9661 32.7361 60.9661V60.9661ZM29.8006 56.2551C30.6379 57.5564 31.6265 58.7771 32.7563 59.8766L35.591 57.4354C34.4611 56.3661 33.4927 55.1657 32.6958 53.8442L29.8006 56.2551Z" fill="#263238"/>
<path fill-rule="evenodd" clip-rule="evenodd" d="M61.4714 38.0104C61.4378 38.0104 61.4042 38.0071 61.3706 38.0003C61.2394 37.9701 61.1285 37.8793 61.0578 37.7582C60.2004 36.1442 59.0706 34.7118 57.7188 33.4811C57.6179 33.3903 57.5574 33.2591 57.5675 33.1179C57.5675 32.9767 57.628 32.8556 57.739 32.7648L61.4513 29.8596C61.6328 29.7183 61.8951 29.7284 62.0666 29.8999C63.4284 31.2315 64.6188 32.7547 65.5872 34.399C65.6982 34.6008 65.6578 34.8631 65.4662 35.0043L61.7539 37.9096C61.6732 37.9701 61.5723 38.0104 61.4714 38.0104ZM58.7478 33.1683C59.8675 34.2477 60.8258 35.4885 61.6127 36.8403L64.5684 34.5201C63.7513 33.1986 62.7929 31.9679 61.7035 30.8482L58.7478 33.1683Z" fill="#263238"/>
<path fill-rule="evenodd" clip-rule="evenodd" d="M61.3752 61.0328C61.2743 61.0328 61.1634 60.9924 61.0827 60.9218L59.4283 59.5701C59.4283 59.5701 59.4182 59.56 57.441 57.9359C57.3301 57.8451 57.2695 57.7139 57.2695 57.5828C57.2695 57.4416 57.3301 57.3104 57.4309 57.2196C58.8129 56.0192 59.973 54.6069 60.8809 53.0231C60.9515 52.9021 61.0625 52.8113 61.2037 52.7911C61.3349 52.771 61.4761 52.8012 61.577 52.892L65.2287 55.8881C65.4002 56.0293 65.4507 56.2916 65.3195 56.4933C64.3208 58.1174 63.1002 59.6003 61.6879 60.9016C61.6072 60.9924 61.4862 61.0328 61.3752 61.0328V61.0328ZM58.4498 57.5626C59.9327 58.7731 60.0134 58.8437 60.0134 58.8437L61.355 59.9433C62.4748 58.8538 63.4634 57.6433 64.3107 56.342L61.4055 53.9512C60.5985 55.2929 59.5998 56.4933 58.4498 57.5626V57.5626Z" fill="#263238"/>
<path fill-rule="evenodd" clip-rule="evenodd" d="M66.6262 53.285C66.5926 53.285 66.5589 53.2816 66.5253 53.2749L61.9354 52.1653C61.8043 52.135 61.6933 52.0442 61.6328 51.9232C61.5723 51.8021 61.5622 51.6508 61.6227 51.5297C62.349 49.8552 62.7727 48.0798 62.8937 46.2438C62.9038 46.1126 62.9744 45.9815 63.0854 45.9008C63.1964 45.8201 63.3376 45.7898 63.4687 45.8201L68.0586 46.9298C68.2806 46.9802 68.442 47.2021 68.4117 47.4341C68.22 49.3205 67.7661 51.1968 67.06 52.9925C66.9893 53.174 66.8179 53.285 66.6262 53.285V53.285ZM62.692 51.3885L66.3437 52.2762C66.8784 50.8034 67.2516 49.2802 67.4433 47.7368L63.7815 46.8591C63.6301 48.4227 63.267 49.9359 62.692 51.3885V51.3885Z" fill="#263238"/>
<path fill-rule="evenodd" clip-rule="evenodd" d="M63.3807 45.034C63.2798 45.034 63.1789 44.9936 63.0982 44.9331C62.9873 44.8524 62.9268 44.7212 62.9167 44.58C62.8461 42.7441 62.4627 40.9585 61.7667 39.2739C61.7162 39.1427 61.7263 39.0015 61.7868 38.8805C61.8575 38.7594 61.9684 38.6686 62.0996 38.6384L66.7197 37.6397C66.9417 37.5892 67.1737 37.7204 67.2544 37.9423C67.9 39.7278 68.3035 41.6041 68.4548 43.5309C68.475 43.7629 68.3136 43.9747 68.0917 44.0252L63.4816 45.0138C63.448 45.0272 63.4143 45.034 63.3807 45.034ZM62.836 39.4353C63.3706 40.898 63.7035 42.4313 63.8145 43.9949L67.4864 43.198C67.3351 41.6344 67.0123 40.1112 66.5079 38.6384L62.836 39.4353Z" fill="#263238"/>
<path fill-rule="evenodd" clip-rule="evenodd" d="M40.5658 65.6211C40.512 65.6211 40.4616 65.6144 40.4145 65.6009C38.5987 65.0058 36.8636 64.1685 35.2698 63.1093C35.0781 62.9781 35.0075 62.7259 35.1084 62.5141L37.1663 58.2773C37.2268 58.1461 37.3378 58.0553 37.4689 58.0251C37.6101 57.9948 37.7514 58.015 37.8623 58.0957C39.3452 59.165 40.9895 59.9619 42.7448 60.4663C42.8759 60.5067 42.9869 60.5974 43.0474 60.7286C43.0978 60.8496 43.0978 60.9909 43.0373 61.122L40.9794 65.3588C40.8987 65.5303 40.7373 65.6211 40.5658 65.6211V65.6211ZM36.1272 62.5544C37.4386 63.3917 38.8509 64.0676 40.3237 64.5821L41.9579 61.2027C40.475 60.7286 39.0728 60.0426 37.7715 59.1751L36.1272 62.5544Z" fill="#263238"/>
<path fill-rule="evenodd" clip-rule="evenodd" d="M27.4091 52.9745C27.2174 52.9745 27.0459 52.8534 26.9753 52.6718C26.3095 50.8863 25.8859 49.01 25.7245 47.0933C25.7043 46.8613 25.8556 46.6495 26.0876 46.5991L30.6876 45.5701C30.8187 45.5398 30.96 45.5701 31.0709 45.6508C31.1819 45.7315 31.2424 45.8626 31.2525 45.9938C31.3433 47.8298 31.7367 49.6052 32.4429 51.2999C32.4933 51.421 32.4933 51.5723 32.4227 51.6933C32.3622 51.8144 32.2512 51.9052 32.1201 51.9354L27.51 52.9644C27.4764 52.9711 27.4427 52.9745 27.4091 52.9745V52.9745ZM26.6929 47.4162C26.8543 48.9697 27.1973 50.503 27.7117 51.9657L31.3736 51.1385C30.8288 49.6758 30.4859 48.1526 30.3547 46.5991L26.6929 47.4162Z" fill="#263238"/>
<path fill-rule="evenodd" clip-rule="evenodd" d="M53.2923 65.7331C53.1107 65.7331 52.9493 65.6322 52.8686 65.4607L50.8813 61.1836C50.8208 61.0524 50.8208 60.9112 50.8813 60.7901C50.9318 60.659 51.0427 60.5682 51.184 60.5379C52.9392 60.0638 54.6037 59.2972 56.1068 58.248C56.2177 58.1673 56.359 58.1472 56.5002 58.1774C56.6313 58.2178 56.7423 58.3086 56.7927 58.4296L58.78 62.7068C58.8809 62.9186 58.8103 63.1708 58.6085 63.2919C56.9844 64.3309 55.2392 65.148 53.4335 65.7129C53.3864 65.7264 53.3394 65.7331 53.2923 65.7331V65.7331ZM51.9506 61.2844L53.5445 64.6941C55.0072 64.2099 56.4296 63.5441 57.7611 62.727L56.1774 59.3173C54.866 60.1748 53.4436 60.8305 51.9506 61.2844V61.2844Z" fill="#263238"/>
<path fill-rule="evenodd" clip-rule="evenodd" d="M47.0748 66.6734C45.9147 66.6734 44.7244 66.5725 43.534 66.3708C43.302 66.3405 43.1406 66.1387 43.1406 65.9067L43.2617 61.1857C43.2617 61.0445 43.3323 60.9133 43.4332 60.8326C43.5441 60.7418 43.6854 60.7116 43.8165 60.7418C45.5314 61.0949 47.2564 61.1857 49.1125 60.9436C49.2538 60.9234 49.3849 60.9638 49.4858 61.0545C49.5867 61.1453 49.6472 61.2664 49.6472 61.4076V66.0984C49.6472 66.3405 49.4656 66.5422 49.2235 66.5624C48.5073 66.633 47.781 66.6734 47.0748 66.6734V66.6734ZM44.0889 65.5133C45.6424 65.7453 47.1656 65.7958 48.709 65.6747V61.9221C47.1354 62.0835 45.6525 62.0129 44.1797 61.7607L44.0889 65.5133Z" fill="#263238"/>
<path fill-rule="evenodd" clip-rule="evenodd" d="M47.0745 59.677C39.1052 59.677 32.6289 53.1906 32.6289 45.2213C32.6289 37.252 39.1052 30.7656 47.0745 30.7656C55.0438 30.7656 61.5302 37.252 61.5302 45.2213C61.5302 53.1906 55.0438 59.677 47.0745 59.677V59.677ZM47.0745 31.7038C39.6197 31.7038 33.557 37.7665 33.557 45.2213C33.557 52.6761 39.6197 58.7388 47.0745 58.7388C54.5293 58.7388 60.6021 52.6761 60.6021 45.2213C60.6021 37.7665 54.5293 31.7038 47.0745 31.7038Z" fill="#263238"/>
<circle cx="8.84435" cy="13.11" r="0.914664" fill="#EDFAFE"/>
<circle cx="29.5748" cy="6.39904" r="0.914664" fill="#EDFAFE"/>
<circle cx="8.84435" cy="35.0592" r="0.914664" fill="#EDFAFE"/>
<path fill-rule="evenodd" clip-rule="evenodd" d="M47.0802 57.3485C40.4021 57.3485 34.9648 51.9112 34.9648 45.2231C34.9648 38.5349 40.4021 33.0977 47.0802 33.0977C53.7683 33.0977 59.2056 38.5349 59.2056 45.2231C59.2056 51.9112 53.7683 57.3485 47.0802 57.3485ZM47.0802 34.0358C40.9166 34.0358 35.8929 39.0494 35.8929 45.2231C35.8929 51.3967 40.9166 56.4103 47.0802 56.4103C53.2538 56.4103 58.2775 51.3967 58.2775 45.2231C58.2775 39.0494 53.2538 34.0358 47.0802 34.0358Z" fill="#263238"/>
<path fill-rule="evenodd" clip-rule="evenodd" d="M23.7767 47.5534C10.6627 47.5534 0 36.8907 0 23.7767C0 10.6627 10.6627 0 23.7767 0C36.0837 0 46.4942 9.61357 47.4626 21.8802C47.4727 22.0114 47.4324 22.1324 47.3416 22.2333C47.2609 22.3241 47.1297 22.3846 47.0087 22.3846C42.9938 22.3947 39.0495 23.4741 35.5894 25.4916C35.4381 25.5824 35.2464 25.5824 35.0951 25.4815C34.9539 25.3907 34.8732 25.2192 34.8933 25.0377C34.9337 24.6039 34.964 24.1802 34.964 23.7767C34.964 17.603 29.9403 12.5894 23.7767 12.5894C17.603 12.5894 12.5794 17.603 12.5794 23.7767C12.5794 29.9504 17.603 34.964 23.7767 34.964C24.4929 34.964 25.2293 34.8933 25.9456 34.7521C26.117 34.7219 26.2986 34.7824 26.4096 34.9236C26.5105 35.0648 26.5306 35.2565 26.46 35.4078C24.9872 38.4947 24.2407 41.7933 24.2407 45.2231C24.2407 45.778 24.2609 46.3731 24.3214 47.049C24.3315 47.1802 24.2811 47.3113 24.2004 47.4021C24.1096 47.4929 23.9885 47.5534 23.8574 47.5534H23.7767ZM23.7767 0.928069C11.1772 0.928069 0.928068 11.1772 0.928068 23.7767C0.928068 36.235 10.9451 46.3933 23.353 46.6152C23.3228 46.1109 23.3026 45.6569 23.3026 45.2231C23.3026 41.9446 23.9583 38.7872 25.2495 35.8012C24.7586 35.8618 24.2676 35.892 23.7767 35.892C17.0886 35.892 11.6513 30.4548 11.6513 23.7767C11.6513 17.0886 17.0886 11.6513 23.7767 11.6513C30.4548 11.6513 35.892 17.0886 35.892 23.7767C35.892 23.9314 35.8887 24.0928 35.8819 24.2609C39.1504 22.5057 42.792 21.5473 46.4942 21.4565C45.3139 9.90612 35.4381 0.928069 23.7767 0.928069V0.928069Z" fill="#263238"/>
<path fill-rule="evenodd" clip-rule="evenodd" d="M29.9106 7.57782C29.7425 7.57109 29.5845 7.54419 29.4365 7.49712C29.0935 7.37606 28.8111 7.12387 28.6497 6.78089C28.4782 6.448 28.458 6.06466 28.5891 5.7116C28.7808 5.15677 29.3155 4.77344 29.9106 4.77344C30.0653 4.77344 30.2166 4.80034 30.3646 4.85414C30.7277 4.97519 31.0102 5.23747 31.1716 5.57037C31.333 5.91335 31.3532 6.28659 31.222 6.63966C31.0304 7.19448 30.4957 7.57782 29.9106 7.57782ZM29.9106 5.7116C29.7089 5.7116 29.5374 5.83265 29.4668 6.01423C29.4264 6.13528 29.4365 6.26642 29.4869 6.37738C29.5374 6.48835 29.6282 6.57914 29.7492 6.61949C29.9611 6.6901 30.2637 6.56905 30.3444 6.32695C30.3848 6.20589 30.3848 6.08484 30.3242 5.97388C30.2738 5.86291 30.1729 5.77212 30.0619 5.73177C30.0081 5.71832 29.9577 5.7116 29.9106 5.7116V5.7116Z" fill="#263238"/>
<path fill-rule="evenodd" clip-rule="evenodd" d="M8.85482 36.3665C8.41096 36.3665 7.99737 36.1648 7.73508 35.8117C7.27105 35.1963 7.3921 34.3187 8.00745 33.8547C8.6228 33.4007 9.5307 33.542 9.97456 34.127C10.1965 34.4297 10.2873 34.7928 10.2368 35.1661C10.1864 35.5393 9.99473 35.8621 9.6921 36.0941C9.44999 36.2757 9.15745 36.3665 8.85482 36.3665V36.3665ZM8.85482 34.5104C8.75394 34.5104 8.65306 34.5406 8.57236 34.6012C8.37061 34.7525 8.33026 35.045 8.48157 35.2468C8.63289 35.4485 8.93552 35.499 9.13727 35.3477C9.23815 35.267 9.29868 35.156 9.31885 35.0349C9.32894 34.9139 9.29868 34.7928 9.22806 34.692C9.13727 34.5709 8.99605 34.5104 8.85482 34.5104V34.5104Z" fill="#263238"/>
<path fill-rule="evenodd" clip-rule="evenodd" d="M8.71838 14.176C8.41574 14.176 8.13329 14.0852 7.90127 13.9037C7.59864 13.6918 7.39689 13.369 7.34645 12.9958C7.28592 12.6326 7.37671 12.2594 7.59864 11.9567C8.02232 11.3515 8.9403 11.2102 9.54556 11.6541C9.8482 11.8659 10.0499 12.1887 10.1004 12.562C10.1609 12.9252 10.0701 13.2984 9.8482 13.601C9.596 13.9642 9.17232 14.176 8.71838 14.176ZM8.71838 12.3098C8.57715 12.3098 8.43592 12.3804 8.34513 12.5015C8.27452 12.6023 8.24425 12.7335 8.26443 12.8545C8.2846 12.9756 8.34513 13.0765 8.44601 13.1572C8.54688 13.2278 8.64776 13.248 8.71838 13.248C8.86969 13.248 9.01092 13.1773 9.10171 13.0563C9.17232 12.9554 9.20258 12.8243 9.18241 12.7032C9.16223 12.5822 9.10171 12.4813 9.00083 12.4006C8.92013 12.3401 8.81925 12.3098 8.71838 12.3098Z" fill="#263238"/>
<path d="M16.467 5.1844L13.1133 7.01372L13.4182 8.53816L14.6377 8.84305L17.3817 7.6235L20.4306 6.70884L22.8697 6.40395L23.4795 4.87951L22.5648 4.26973L20.7355 3.96484L16.467 5.1844Z" fill="#59D8FE"/>
<path d="M4.05889 26.0071L4.90646 29.7321L6.45634 29.8536L7.08161 28.763L6.65485 25.7907L6.60445 22.608L6.97486 20.178L5.67391 19.1763L4.83822 19.8905L4.047 21.5678L4.05889 26.0071Z" fill="#59D8FE"/>
<path d="M41.2705 13.9613L42.6795 17.5122L41.4703 18.4894L40.3377 17.944L39.0077 15.2519L37.2483 12.5992L35.5678 10.8052L36.0737 9.2432L37.1668 9.35918L38.7683 10.2944L41.2705 13.9613Z" fill="#59D8FE"/>
<path d="M20.5366 43.1198L24.3547 43.2495L24.3547 41.7638L23.9719 40.8992L21.0373 40.8491L17.8985 39.7921L15.5493 39.0198L14.343 39.8174L14.8207 40.8075L16.241 42L20.5366 43.1198Z" fill="#59D8FE"/>
<path fill-rule="evenodd" clip-rule="evenodd" d="M5.79836 30.3972C5.07205 30.3972 4.42644 29.913 4.22468 29.2069C3.74048 27.4516 3.48828 25.6257 3.48828 23.7797C3.48828 22.5692 3.59925 21.3586 3.81109 20.1683C3.97249 19.3007 4.79968 18.6854 5.70757 18.8569C6.14135 18.9275 6.51459 19.1696 6.75669 19.5328C7.00889 19.8858 7.09968 20.3196 7.02906 20.7534C6.84749 21.742 6.75669 22.7608 6.75669 23.7797C6.75669 25.3231 6.95845 26.8564 7.37204 28.3292C7.61415 29.1968 7.09968 30.1047 6.24222 30.3468C6.09427 30.3804 5.94632 30.3972 5.79836 30.3972ZM5.41503 19.7648C5.08214 19.7648 4.7896 20.0069 4.72907 20.3398C4.52732 21.4696 4.42644 22.6297 4.42644 23.7797C4.42644 25.5349 4.65846 27.2801 5.12249 28.9547C5.22337 29.3178 5.61679 29.5498 5.99003 29.4389C6.36328 29.338 6.57512 28.9547 6.47424 28.5814C6.04047 27.0279 5.81854 25.4139 5.81854 23.7797C5.81854 22.7104 5.91942 21.631 6.11108 20.5819C6.17161 20.2086 5.91942 19.8354 5.54617 19.7749C5.49909 19.7681 5.45538 19.7648 5.41503 19.7648V19.7648Z" fill="#263238"/>
<path fill-rule="evenodd" clip-rule="evenodd" d="M41.2079 18.783C40.5321 18.783 39.9167 18.3593 39.6847 17.7339C38.7768 15.3633 37.3141 13.1843 35.468 11.419C35.1452 11.1264 34.9637 10.7229 34.9536 10.2791C34.9435 9.84529 35.1049 9.4317 35.3974 9.11898C35.9926 8.49354 37.0821 8.45319 37.7075 9.04837C39.9167 11.1466 41.6518 13.7492 42.7312 16.5738C42.8825 16.9773 42.8724 17.4212 42.7009 17.8247C42.5193 18.2181 42.1965 18.5207 41.793 18.6821C41.6047 18.7494 41.4097 18.783 41.2079 18.783V18.783ZM36.5878 9.54266C36.3961 9.54266 36.2145 9.61328 36.0733 9.75451C35.9523 9.89573 35.8816 10.0672 35.8816 10.2589C35.8917 10.4405 35.9724 10.622 36.1036 10.7431C38.0606 12.5992 39.604 14.8992 40.5522 17.401C40.6834 17.754 41.1071 17.9457 41.4601 17.8045C41.6316 17.744 41.7729 17.6128 41.8435 17.4413C41.9242 17.2698 41.9242 17.0782 41.8636 16.9067C40.8347 14.2133 39.1702 11.7317 37.0619 9.73433C36.9308 9.60319 36.7694 9.54266 36.5878 9.54266Z" fill="#263238"/>
<path fill-rule="evenodd" clip-rule="evenodd" d="M23.7778 44.052C20.6809 44.052 17.7151 43.3761 14.9511 42.0344C14.1441 41.641 13.8011 40.6625 14.1945 39.8555C14.4669 39.3007 15.0419 38.9375 15.6673 38.9375C15.9094 38.9375 16.1515 38.9879 16.3734 39.0989C18.6936 40.2186 21.1853 40.7936 23.7778 40.7936C23.919 40.7936 24.0805 40.8138 24.2419 40.8642C24.4638 40.9349 24.605 41.1568 24.5647 41.3888C24.4436 42.1151 24.3528 42.8616 24.3024 43.6182C24.2822 43.8502 24.1006 44.0318 23.8686 44.052C23.8484 44.052 23.8081 44.052 23.7778 44.052ZM15.6673 39.8656C15.3949 39.8656 15.1528 40.0169 15.0318 40.259C14.8704 40.6121 15.0116 41.0257 15.3546 41.1971C17.8866 42.4178 20.5901 43.0735 23.4046 43.1239C23.4449 42.6531 23.4987 42.1857 23.566 41.7217C20.9129 41.6914 18.3506 41.0963 15.9699 39.9362C15.8758 39.8891 15.7749 39.8656 15.6673 39.8656V39.8656Z" fill="#263238"/>
<path fill-rule="evenodd" clip-rule="evenodd" d="M14.1647 9.43126C13.5897 9.43126 13.0551 9.12864 12.7625 8.64443C12.2985 7.87776 12.5406 6.86899 13.3173 6.40496C15.9502 4.8111 18.8454 3.86286 21.9121 3.5804C21.9591 3.57368 22.0062 3.57031 22.0533 3.57031C22.9107 3.57031 23.6068 4.21593 23.6875 5.05321C23.7279 5.48698 23.5967 5.91066 23.3143 6.25364C23.0318 6.58653 22.6485 6.78829 22.2147 6.82864C19.6423 7.06066 17.2112 7.85759 15.002 9.19925C14.7498 9.35056 14.4573 9.43126 14.1647 9.43126V9.43126ZM22.0533 4.50847C22.0331 4.50847 22.0129 4.50847 21.9928 4.50847C19.0774 4.78084 16.3134 5.67864 13.8016 7.20188C13.4687 7.40364 13.3577 7.83741 13.5595 8.16021C13.7511 8.48302 14.195 8.59398 14.5178 8.40232C16.8581 6.99004 19.4103 6.15276 22.1239 5.90057C22.5072 5.87031 22.7897 5.52733 22.7594 5.14399C22.7292 4.78084 22.4265 4.50847 22.0533 4.50847V4.50847Z" fill="#263238"/>
<path fill-rule="evenodd" clip-rule="evenodd" d="M23.7785 45.2249C11.9456 45.2249 2.33203 35.6013 2.33203 23.7785C2.33203 11.9557 11.9456 2.33203 23.7785 2.33203C34.8447 2.33203 44.2262 10.9671 45.1442 22.003C45.1644 22.2552 44.9727 22.4772 44.7205 22.4973C41.4925 22.8403 38.4157 23.839 35.5912 25.4934C35.4398 25.5842 35.2482 25.5842 35.0969 25.4833C34.9556 25.3925 34.8749 25.221 34.8951 25.0394C34.9355 24.6057 34.9657 24.182 34.9657 23.7785C34.9657 17.6048 29.9421 12.5912 23.7785 12.5912C17.6048 12.5912 12.5811 17.6048 12.5811 23.7785C12.5811 29.9521 17.6048 34.9657 23.7785 34.9657C24.5048 34.9657 25.2412 34.8951 25.9574 34.7539C26.1289 34.7135 26.3105 34.7842 26.4114 34.9254C26.5223 35.0666 26.5425 35.2482 26.4719 35.4096C25.0596 38.3552 24.3131 41.5026 24.2526 44.771C24.2425 45.0232 24.0408 45.2249 23.7886 45.2249H23.7785ZM23.7785 3.2601C12.4601 3.2601 3.2601 12.4702 3.2601 23.7785C3.2601 34.9456 12.2281 44.0547 23.3346 44.2868C23.4456 41.3412 24.1013 38.4964 25.2614 35.803C24.7704 35.8703 24.2761 35.9039 23.7785 35.9039C17.0903 35.9039 11.6531 30.4666 11.6531 23.7785C11.6531 17.0903 17.0903 11.6531 23.7785 11.6531C30.4565 11.6531 35.8938 17.0903 35.8938 23.7785C35.8938 23.9399 35.8904 24.1013 35.8837 24.2627C38.4762 22.8706 41.2605 21.9829 44.1758 21.6298C43.0863 11.2899 34.2092 3.2601 23.7785 3.2601V3.2601Z" fill="#263238"/>
<path fill-rule="evenodd" clip-rule="evenodd" d="M23.776 38.2317C15.8067 38.2317 9.32031 31.7453 9.32031 23.776C9.32031 15.8067 15.8067 9.32031 23.776 9.32031C31.7453 9.32031 38.2216 15.8067 38.2216 23.776V23.8466C38.2216 24.0181 38.1106 24.2198 37.9391 24.2905C37.1624 24.6334 36.3755 25.0369 35.5887 25.501C35.4374 25.5918 35.2457 25.5817 35.0944 25.4909C34.9531 25.39 34.8724 25.2185 34.8926 25.047C34.933 24.6133 34.9632 24.1896 34.9632 23.776C34.9632 17.6023 29.9396 12.5887 23.776 12.5887C17.6023 12.5887 12.5786 17.6023 12.5786 23.776C12.5786 29.9497 17.6023 34.9632 23.776 34.9632C24.5023 34.9632 25.2387 34.8926 25.9549 34.7514C26.1264 34.711 26.308 34.7817 26.419 34.9229C26.5198 35.0641 26.54 35.2457 26.4694 35.4071C26.076 36.2242 25.7431 37.0514 25.4606 37.8584C25.4001 38.0299 25.2488 38.151 25.0672 38.1711C24.6032 38.2115 24.1795 38.2317 23.776 38.2317V38.2317ZM23.776 10.2585C16.3212 10.2585 10.2484 16.3212 10.2484 23.776C10.2484 31.2308 16.3212 37.2935 23.776 37.2935C24.0685 37.2935 24.3611 37.2834 24.6839 37.2632C24.8587 36.779 25.0504 36.2915 25.2589 35.8005C24.7612 35.8678 24.2669 35.9014 23.776 35.9014C17.0878 35.9014 11.6506 30.4641 11.6506 23.776C11.6506 17.0878 17.0878 11.6506 23.776 11.6506C30.454 11.6506 35.8913 17.0878 35.8913 23.776C35.8913 23.9374 35.8879 24.0988 35.8812 24.2602C36.352 24.0046 36.8227 23.7726 37.2935 23.5641C37.1624 16.19 31.14 10.2585 23.776 10.2585V10.2585Z" fill="#263238"/>
<path fill-rule="evenodd" clip-rule="evenodd" d="M23.7781 40.564C14.5176 40.564 6.99219 33.0285 6.99219 23.7781C6.99219 14.5277 14.5176 6.99219 23.7781 6.99219C32.7461 6.99219 40.1101 14.0132 40.5338 22.9711C40.5439 23.1829 40.4127 23.3746 40.211 23.4351C38.6373 23.9395 37.0737 24.6356 35.5908 25.5031C35.4395 25.5939 35.2478 25.5939 35.0965 25.493C34.9553 25.4022 34.8645 25.2307 34.8847 25.0492C34.9351 24.6154 34.9654 24.1917 34.9654 23.7781C34.9654 17.6044 29.9417 12.5909 23.7781 12.5909C17.6044 12.5909 12.5808 17.6044 12.5808 23.7781C12.5808 29.9518 17.6044 34.9654 23.7781 34.9654C24.5044 34.9654 25.2408 34.8948 25.9671 34.7535C26.1386 34.7132 26.3202 34.7838 26.4211 34.925C26.5321 35.0663 26.5522 35.2478 26.4816 35.4092C25.7351 36.9627 25.1702 38.5667 24.8071 40.1807C24.7566 40.3926 24.5851 40.5439 24.3733 40.5439L24.2926 40.554C24.1177 40.5607 23.9462 40.564 23.7781 40.564V40.564ZM23.7781 7.93035C15.0321 7.93035 7.92025 15.0422 7.92025 23.7781C7.92025 32.5141 15.0321 39.6259 23.7781 39.6259C23.8454 39.6259 23.9126 39.6259 23.9799 39.6259C24.2926 38.3448 24.7264 37.0636 25.2711 35.8027C24.7734 35.8699 24.2758 35.9035 23.7781 35.9035C17.09 35.9035 11.6527 30.4663 11.6527 23.7781C11.6527 17.09 17.09 11.6527 23.7781 11.6527C30.4562 11.6527 35.8934 17.09 35.8934 23.7781C35.8934 23.9395 35.8901 24.1043 35.8833 24.2724C37.0939 23.6167 38.3246 23.0821 39.5855 22.6584C39.0105 14.3663 32.1307 7.93035 23.7781 7.93035V7.93035Z" fill="#263238"/>
<path d="M52.0643 10.8571C52.24 10.8571 52.4084 10.7874 52.5326 10.6632C52.6568 10.539 52.7266 10.3705 52.7266 10.1949V4.90138C52.7197 4.73049 52.647 4.56887 52.5237 4.45038C52.4003 4.3319 52.2359 4.26562 52.0649 4.26562C51.8938 4.26562 51.7294 4.3319 51.6061 4.45038C51.4828 4.56887 51.4101 4.73049 51.4032 4.90138V10.1949C51.403 10.2818 51.42 10.3679 51.4532 10.4482C51.4864 10.5286 51.535 10.6016 51.5964 10.6631C51.6579 10.7246 51.7308 10.7734 51.8111 10.8067C51.8913 10.84 51.9774 10.8571 52.0643 10.8571V10.8571Z" fill="#263238"/>
<path d="M49.4185 8.21404H54.712C54.8829 8.20717 55.0445 8.1345 55.163 8.01116C55.2815 7.88781 55.3477 7.72336 55.3477 7.55233C55.3477 7.3813 55.2815 7.21685 55.163 7.0935C55.0445 6.97016 54.8829 6.89749 54.712 6.89062H49.4185C49.2476 6.89749 49.0859 6.97016 48.9674 7.0935C48.849 7.21685 48.7828 7.3813 48.7828 7.55233C48.7828 7.72336 48.849 7.88781 48.9674 8.01116C49.0859 8.1345 49.2476 8.20717 49.4185 8.21404Z" fill="#263238"/>
<path d="M60.6698 20.1267C60.8454 20.1267 61.0139 20.057 61.1381 19.9328C61.2623 19.8086 61.332 19.6401 61.332 19.4644V14.1709C61.3252 14 61.2525 13.8384 61.1291 13.7199C61.0058 13.6014 60.8414 13.5352 60.6703 13.5352C60.4993 13.5352 60.3349 13.6014 60.2116 13.7199C60.0882 13.8384 60.0155 14 60.0087 14.1709V19.4644C60.0085 19.5513 60.0255 19.6374 60.0587 19.7178C60.0918 19.7981 60.1405 19.8711 60.2019 19.9326C60.2633 19.9941 60.3362 20.0429 60.4165 20.0762C60.4968 20.1095 60.5829 20.1267 60.6698 20.1267V20.1267Z" fill="#263238"/>
<path d="M58.02 17.4758H63.3136C63.4845 17.4689 63.6461 17.3962 63.7646 17.2729C63.883 17.1495 63.9492 16.9851 63.9492 16.814C63.9492 16.643 63.883 16.4786 63.7646 16.3552C63.6461 16.2319 63.4845 16.1592 63.3136 16.1523H58.02C57.8491 16.1592 57.6875 16.2319 57.569 16.3552C57.4505 16.4786 57.3844 16.643 57.3844 16.814C57.3844 16.9851 57.4505 17.1495 57.569 17.2729C57.6875 17.3962 57.8491 17.4689 58.02 17.4758V17.4758Z" fill="#263238"/>
</svg>
