<svg xmlns="http://www.w3.org/2000/svg" width="83.98" height="76.486" viewBox="0 0 83.98 76.486"><path d="M32.299 20.994a10.436 10.436 0 01-5.672-1.671 2.98 2.98 0 00-3.19 0 10.483 10.483 0 01-13.521-1.854 10.492 10.492 0 0113.521-15.8 2.977 2.977 0 003.19 0 10.486 10.486 0 0116.095 7.553 10.5 10.5 0 01-10.423 11.77zm-7.267-3.745a4.559 4.559 0 012.473.717 8.88 8.88 0 0013.614-8.551 8.871 8.871 0 00-13.614-6.387 4.621 4.621 0 01-4.943 0A8.872 8.872 0 008.948 9.415a8.876 8.876 0 0013.614 8.551 4.557 4.557 0 012.47-.712zm7.267-2.715a4.037 4.037 0 114.037-4.037 4.042 4.042 0 01-4.037 4.037zm0-6.46a2.423 2.423 0 102.423 2.423 2.426 2.426 0 00-2.423-2.423zm-14.535 6.46a4.037 4.037 0 114.037-4.037 4.042 4.042 0 01-4.037 4.037zm0-6.46a2.423 2.423 0 102.423 2.423 2.426 2.426 0 00-2.423-2.423z" fill="#263238"/><path d="M66.214 20.994a10.436 10.436 0 01-5.672-1.671 2.98 2.98 0 00-3.19 0 10.484 10.484 0 01-13.521-1.854 10.492 10.492 0 0113.521-15.8 2.976 2.976 0 003.19 0 10.485 10.485 0 0116.095 7.553 10.5 10.5 0 01-10.423 11.77zm-7.267-3.745a4.559 4.559 0 012.473.717 8.88 8.88 0 0013.614-8.551A8.871 8.871 0 0061.42 3.028a4.621 4.621 0 01-4.943 0 8.871 8.871 0 00-13.614 6.387 8.876 8.876 0 0013.614 8.551 4.557 4.557 0 012.47-.712zm7.267-2.715a4.037 4.037 0 114.037-4.037 4.042 4.042 0 01-4.037 4.037zm0-6.46a2.423 2.423 0 102.422 2.423 2.426 2.426 0 00-2.422-2.423zm-14.535 6.46a4.037 4.037 0 114.037-4.037 4.042 4.042 0 01-4.037 4.037zm0-6.46a2.423 2.423 0 102.422 2.423 2.426 2.426 0 00-2.422-2.423zM32.299 76.484a10.422 10.422 0 01-5.672-1.671 2.983 2.983 0 00-3.19 0 10.485 10.485 0 01-13.521-1.852 10.493 10.493 0 0113.521-15.8 2.98 2.98 0 003.19 0 10.487 10.487 0 0116.095 7.555 10.5 10.5 0 01-10.423 11.768zm-7.267-3.744a4.572 4.572 0 012.473.715 8.879 8.879 0 0013.614-8.551 8.871 8.871 0 00-13.614-6.387 4.622 4.622 0 01-4.943 0 8.879 8.879 0 10-4.8 16.352 8.807 8.807 0 004.8-1.413 4.57 4.57 0 012.47-.715zm7.267-2.716a4.037 4.037 0 114.037-4.037 4.042 4.042 0 01-4.037 4.038zm0-6.46a2.422 2.422 0 102.423 2.423 2.425 2.425 0 00-2.423-2.422zm-14.535 6.46a4.037 4.037 0 114.037-4.037 4.042 4.042 0 01-4.037 4.038zm0-6.46a2.422 2.422 0 102.423 2.423 2.425 2.425 0 00-2.423-2.422z" fill="#263238"/><path d="M66.214 76.484a10.423 10.423 0 01-5.672-1.671 2.983 2.983 0 00-3.19 0 10.486 10.486 0 01-13.521-1.852 10.493 10.493 0 0113.521-15.8 2.98 2.98 0 003.19 0 10.487 10.487 0 0116.095 7.555 10.5 10.5 0 01-10.423 11.768zm-7.267-3.744a4.572 4.572 0 012.473.715 8.879 8.879 0 0013.614-8.551 8.871 8.871 0 00-13.614-6.387 4.622 4.622 0 01-4.943 0 8.879 8.879 0 10-4.8 16.352 8.807 8.807 0 004.8-1.413 4.57 4.57 0 012.47-.715zm7.267-2.716a4.037 4.037 0 114.037-4.037 4.042 4.042 0 01-4.037 4.038zm0-6.46a2.422 2.422 0 102.422 2.423 2.425 2.425 0 00-2.422-2.422zm-14.535 6.46a4.037 4.037 0 114.037-4.037 4.042 4.042 0 01-4.037 4.038zm0-6.46a2.422 2.422 0 102.422 2.423 2.425 2.425 0 00-2.422-2.422z" fill="#263238"/><path d="M54.766 27.135a9.683 9.683 0 00-17.1 3.91 3.786 3.786 0 01-2.876 2.876 9.683 9.683 0 00-3.91 17.1 9.679 9.679 0 0015.433-5.575 3.786 3.786 0 012.876-2.876 9.679 9.679 0 005.575-15.433zM39.137 45.67a3.229 3.229 0 110-4.567 3.229 3.229 0 010 4.567zm10.278-10.278a3.229 3.229 0 110-4.567 3.229 3.229 0 01-.001 4.564z" fill="#59d8fd"/><path d="M36.865 53.891a10.5 10.5 0 01-2.242-20.759 2.983 2.983 0 002.256-2.256 10.486 10.486 0 0110.872-8.249 10.55 10.55 0 017.649 4.01 10.485 10.485 0 01-6.039 16.725 2.98 2.98 0 00-2.256 2.256 10.53 10.53 0 01-4.2 6.353 10.379 10.379 0 01-6.04 1.92zm10.27-29.667a8.872 8.872 0 00-8.677 6.991 4.62 4.62 0 01-3.495 3.5 8.879 8.879 0 00-3.579 15.673 8.871 8.871 0 0014.142-5.11 4.624 4.624 0 013.5-3.5 8.87 8.87 0 005.11-14.142 8.823 8.823 0 00-6.476-3.4 11.906 11.906 0 00-.526-.013zM36.854 47.418a4.033 4.033 0 112.855-1.18 4.021 4.021 0 01-2.856 1.18zm0-6.455a2.418 2.418 0 101.713.707 2.42 2.42 0 00-1.714-.708zm10.278-3.82a4.037 4.037 0 112.855-1.182 4.011 4.011 0 01-2.856 1.182zm0-6.458a2.422 2.422 0 00-1.714 4.134 2.484 2.484 0 003.427 0 2.421 2.421 0 00-1.714-4.134zM2.422 39.05H.807a.807.807 0 110-1.615h1.615a.807.807 0 110 1.615zM21.802 39.05H5.652a.807.807 0 110-1.615h16.15a.807.807 0 110 1.615zM83.172 39.05h-1.615a.807.807 0 110-1.615h1.615a.807.807 0 110 1.615z" fill="#263238"/><g><path d="M78.328 39.05h-16.15a.807.807 0 110-1.615h16.15a.807.807 0 110 1.615z" fill="#263238"/></g></svg>