<svg xmlns="http://www.w3.org/2000/svg" width="68.667" height="76" viewBox="0 0 68.667 76"><path d="M40 76H17.334A10.679 10.679 0 016.667 65.333v-48A17.353 17.353 0 0124 0h9.333a17.353 17.353 0 0117.333 17.333v48A10.679 10.679 0 0140 76zM24 1.333a16.018 16.018 0 00-16 16v48a9.344 9.344 0 009.333 9.333H40a9.344 9.344 0 009.333-9.333v-48a16.018 16.018 0 00-16-16z" fill="#263238"/><path d="M50 26a.67.67 0 01-.353-.1l-.14-.088a39.58 39.58 0 00-41.681 0l-.137.086a.667.667 0 01-1.021-.564v-8A17.353 17.353 0 0124.001.001h9.333a17.353 17.353 0 0117.333 17.333v8a.668.668 0 01-.667.667zm-21.333-7.452a40.718 40.718 0 0120.667 5.6v-6.812a16.018 16.018 0 00-16-16h-9.333a16.018 16.018 0 00-16 16v6.812a40.718 40.718 0 0120.666-5.6z" fill="#263238"/><path d="M45.998 19.393a.667.667 0 01-.667-.667v-1.394a12.013 12.013 0 00-12-12 .667.667 0 110-1.333 13.348 13.348 0 0113.333 13.333v1.394a.666.666 0 01-.666.667zM40 76H17.333a10.614 10.614 0 01-7.415-3.007.666.666 0 01-.024-.932l6.16-6.632a.664.664 0 01.916-.059 2.617 2.617 0 001.7.629h20a2.614 2.614 0 001.695-.629.666.666 0 01.916.059l6.16 6.632a.664.664 0 01-.024.932A10.611 10.611 0 0140 76zm-28.669-3.528a9.27 9.27 0 006 2.195h22.667a9.264 9.264 0 006-2.195l-5.3-5.708a3.9 3.9 0 01-2.032.569h-20a3.9 3.9 0 01-2.033-.569zM15.75 34.416a.662.662 0 01-.471-.195l-8.417-8.417a.666.666 0 01.117-1.035l.139-.088a40.925 40.925 0 0143.1 0l.139.087a.667.667 0 01.117 1.036l-8.417 8.417A.668.668 0 0141 34.069a2.656 2.656 0 00-2.329-1.4h-20a2.664 2.664 0 00-2.332 1.4.663.663 0 01-.489.34.792.792 0 01-.1.007zm-7.348-8.957l7.257 7.257a3.978 3.978 0 013.008-1.383h20a3.977 3.977 0 013.007 1.383l7.259-7.257a39.59 39.59 0 00-40.531 0zM15.334 50.667h-8a.667.667 0 010-1.333h8a.667.667 0 010 1.333zM50 50.667h-8a.667.667 0 010-1.333h8a.667.667 0 010 1.333z" fill="#263238"/><path d="M38.667 67.333h-20a4 4 0 01-4-4v-28a4 4 0 014-4h20a4 4 0 014 4v28a4 4 0 01-4 4zm-20-34.667A2.669 2.669 0 0016 35.333v28A2.67 2.67 0 0018.667 66h20a2.67 2.67 0 002.667-2.667v-28a2.669 2.669 0 00-2.667-2.667z" fill="#263238"/><path d="M35.332 43.333H21.999a2 2 0 01-2-2v-4a2 2 0 012-2h13.333a2 2 0 012 2v4a2 2 0 01-2 2zm-13.333-6.667a.667.667 0 00-.667.667v4a.668.668 0 00.667.667h13.333a.668.668 0 00.667-.667v-4a.667.667 0 00-.667-.667z" fill="#263238"/><path d="M52.667 34.851l11.815 13.784a2 2 0 103.036-2.6L52.667 28.708" fill="#59d8fd"/><path d="M66 49.999a2.664 2.664 0 01-2.024-.931L52.16 35.284a.667.667 0 011.012-.868L64.988 48.2a1.373 1.373 0 001.88.144 1.335 1.335 0 00.144-1.881L52.16 29.136a.666.666 0 111.012-.867l14.852 17.327a2.667 2.667 0 01-2.024 4.4zM.667 40A.666.666 0 010 39.333v-2.667a.667.667 0 111.333 0v2.667A.667.667 0 01.667 40z" fill="#263238"/><g><path d="M.667 69.333A.666.666 0 010 68.666V41.999a.667.667 0 111.333 0v26.667a.667.667 0 01-.666.667z" fill="#263238"/></g></svg>