<svg xmlns="http://www.w3.org/2000/svg" width="75.595" height="75.595" viewBox="0 0 75.595 75.595"><g transform="translate(-424.359 -407.26)"><circle cx="15" cy="15" r="15" transform="translate(447.359 429.855)" fill="#edfafe"/><path d="M462.157 460.309a15.252 15.252 0 1115.252-15.252 15.269 15.269 0 01-15.252 15.252zm0-29.177a13.925 13.925 0 1013.925 13.925 13.941 13.941 0 00-13.925-13.925z" fill="#263238"/><path d="M462.158 451.029a5.968 5.968 0 115.968-5.968 5.975 5.975 0 01-5.968 5.968zm0-10.61a4.642 4.642 0 104.642 4.642 4.647 4.647 0 00-4.642-4.646zM425.022 445.72a.663.663 0 01-.663-.663 37.842 37.842 0 0137.8-37.8.663.663 0 010 1.326 36.513 36.513 0 00-36.471 36.471.663.663 0 01-.666.666zM466.135 408.586h-1.326a.663.663 0 010-1.326h1.326a.663.663 0 110 1.326zM462.156 482.854a.663.663 0 010-1.326 36.513 36.513 0 0036.471-36.471.663.663 0 011.326 0 37.84 37.84 0 01-37.797 37.797zM459.504 482.855h-1.326a.663.663 0 010-1.326h1.326a.663.663 0 010 1.326z" fill="#263238"/><path d="M462.158 413.261v13.229a18.567 18.567 0 0118.567 18.567h13.228a1.326 1.326 0 001.333-1.362 33.158 33.158 0 00-31.766-31.767 1.328 1.328 0 00-1.362 1.333z" fill="#59d8fd"/><path d="M493.953 445.72h-13.228a.663.663 0 01-.663-.663 17.923 17.923 0 00-17.9-17.9.663.663 0 01-.663-.663v-13.233a2.016 2.016 0 01.618-1.447 1.98 1.98 0 011.432-.548 33.978 33.978 0 0132.4 32.4 1.942 1.942 0 01-.546 1.432 2.016 2.016 0 01-1.45.622zm-12.575-1.326h12.575a.686.686 0 00.492-.211.62.62 0 00.178-.46 32.642 32.642 0 00-31.13-31.132.641.641 0 00-.46.179.683.683 0 00-.211.491v12.577a19.257 19.257 0 0118.556 18.556z" fill="#263238"/><path d="M462.158 473.571a28.51 28.51 0 01-2.715-56.891.663.663 0 11.125 1.32 27.184 27.184 0 1029.646 29.648.672.672 0 01.723-.6.664.664 0 01.6.723 28.375 28.375 0 01-28.379 25.8z" fill="#263238"/><path d="M455.125 440.014a1.99 1.99 0 01-1.407-3.4 2.039 2.039 0 012.814 0 1.991 1.991 0 01-1.407 3.4zm0-2.652a.662.662 0 00-.469 1.131.677.677 0 00.938 0 .664.664 0 000-.938.656.656 0 00-.469-.193zM469.19 454.078a1.986 1.986 0 111.407-.581 1.982 1.982 0 01-1.407.581zm0-2.651a.663.663 0 00-.663.663.653.653 0 00.195.468.663.663 0 10.468-1.131zM469.191 440.012a1.989 1.989 0 111.407-.582 1.978 1.978 0 01-1.407.582zm0-2.651a.662.662 0 00-.468 1.131.663.663 0 10.468-1.131zM455.124 454.08a1.99 1.99 0 01-1.407-3.4 2.041 2.041 0 012.814 0 1.991 1.991 0 010 2.814 1.974 1.974 0 01-1.407.586zm0-2.652a.661.661 0 00-.663.663.651.651 0 00.194.468.679.679 0 00.938 0 .653.653 0 00.195-.468.663.663 0 00-.663-.663zM485.078 439.089h-5.593a.663.663 0 01-.619-.427 17.934 17.934 0 00-10.313-10.313.663.663 0 01-.427-.619v-5.591a.665.665 0 01.265-.53.674.674 0 01.582-.107 24.7 24.7 0 0116.741 16.741.664.664 0 01-.637.848zm-5.142-1.326h4.241a23.4 23.4 0 00-14.725-14.725v4.243a19.272 19.272 0 0110.484 10.482zM429.001 472.245a.663.663 0 01-.663-.663v-5.3a.662.662 0 01.663-.663.663.663 0 01.663.663v5.3a.663.663 0 01-.663.663z" fill="#263238"/><path d="M431.653 469.592h-5.3a.663.663 0 110-1.326h5.3a.663.663 0 110 1.326zM437.621 481.528a.663.663 0 01-.663-.663v-5.3a.663.663 0 111.326 0v5.3a.662.662 0 01-.663.663z" fill="#263238"/><g><path d="M440.274 478.876h-5.3a.663.663 0 010-1.326h5.3a.663.663 0 110 1.326z" fill="#263238"/></g></g></svg>