<svg xmlns="http://www.w3.org/2000/svg" width="74.595" height="74.595" viewBox="0 0 74.595 74.595"><g transform="translate(-568.359 -407.26)"><circle cx="14" cy="14" r="14" transform="translate(591.359 430.855)" fill="#edfafe"/><path d="M605.658 417.075a27.482 27.482 0 1027.482 27.482 27.482 27.482 0 00-27.482-27.482zm0 47.112a19.63 19.63 0 1119.63-19.63 19.631 19.631 0 01-19.63 19.63z" fill="#59d8fd"/><path d="M605.661 472.694a28.137 28.137 0 1128.132-28.133 28.169 28.169 0 01-28.132 28.133zm0-54.965a26.828 26.828 0 1026.824 26.832 26.859 26.859 0 00-26.824-26.831zm0 47.112a20.285 20.285 0 1120.281-20.28 20.307 20.307 0 01-20.281 20.281zm0-39.26a18.976 18.976 0 1018.973 18.98 19 19 0 00-18.973-18.979z" fill="#263238"/><path d="M569.013 445.212a.655.655 0 01-.654-.654 37.34 37.34 0 0137.3-37.3.654.654 0 110 1.309 36.029 36.029 0 00-35.989 35.989.654.654 0 01-.657.656zM609.582 408.569h-1.309a.654.654 0 110-1.309h1.309a.654.654 0 010 1.309zM605.656 481.855a.654.654 0 010-1.309 36.03 36.03 0 0035.987-35.989.654.654 0 111.309 0 37.34 37.34 0 01-37.296 37.298zM603.039 481.855h-1.309a.654.654 0 010-1.309h1.309a.654.654 0 010 1.309zM572.939 471.382a.655.655 0 01-.654-.654v-5.235a.654.654 0 111.309 0v5.235a.654.654 0 01-.655.654z" fill="#263238"/><path d="M575.557 468.768h-5.235a.654.654 0 010-1.309h5.235a.654.654 0 010 1.309zM581.445 480.543a.655.655 0 01-.654-.654v-5.235a.654.654 0 111.309 0v5.235a.654.654 0 01-.655.654z" fill="#263238"/><path d="M584.063 477.929h-5.235a.654.654 0 110-1.309h5.235a.654.654 0 110 1.309zM605.656 472.694a27.974 27.974 0 01-4.658-.417.652.652 0 01-.546-.691l.561-7.852a.654.654 0 01.785-.6 19.129 19.129 0 007.716 0 .656.656 0 01.785.6l.56 7.852a.654.654 0 01-.546.691 27.955 27.955 0 01-4.657.417zm-3.855-1.615a24.24 24.24 0 007.712 0l-.466-6.521a20.5 20.5 0 01-6.779 0zM601.669 425.988a.653.653 0 01-.653-.607l-.561-7.852a.655.655 0 01.546-.692 25.947 25.947 0 019.317 0 .656.656 0 01.546.692l-.56 7.852a.659.659 0 01-.258.475.667.667 0 01-.527.119 19.2 19.2 0 00-7.717 0 .635.635 0 01-.133.013zm.134-7.954l.467 6.522a20.394 20.394 0 016.779 0l.466-6.522a24.39 24.39 0 00-7.715 0zM578.583 449.763a.654.654 0 01-.645-.546 26.208 26.208 0 010-9.318.656.656 0 01.691-.544l7.852.56a.654.654 0 01.594.785 19.092 19.092 0 000 7.716.655.655 0 01-.594.785l-7.852.56zm.552-9.061a24.432 24.432 0 000 7.712l6.521-.466a20.381 20.381 0 010-6.78zM632.731 449.762h-.046l-7.852-.56a.657.657 0 01-.476-.258.65.65 0 01-.118-.527 19.153 19.153 0 000-7.716.652.652 0 01.594-.785l7.852-.56a.652.652 0 01.691.544 26.284 26.284 0 010 9.318.654.654 0 01-.645.544zm-7.073-1.815l6.521.466a24.534 24.534 0 000-7.712l-6.521.466a20.472 20.472 0 010 6.78zM589.242 434.441a.655.655 0 01-.428-.16l-5.949-5.155a.657.657 0 01-.1-.875 26.3 26.3 0 016.589-6.588.657.657 0 01.874.1l5.158 5.949a.654.654 0 01-.136.975 19.075 19.075 0 00-5.456 5.456.65.65 0 01-.457.288.516.516 0 01-.095.01zm-5.067-5.91l4.943 4.281a20.375 20.375 0 012.195-2.6 20.582 20.582 0 012.6-2.2l-4.283-4.94a24.5 24.5 0 00-5.453 5.453zM621.584 467.575a.657.657 0 01-.495-.225l-5.155-5.949a.657.657 0 01.135-.976 19.075 19.075 0 005.456-5.456.655.655 0 01.975-.135l5.948 5.156a.652.652 0 01.1.874 27.671 27.671 0 01-3 3.588 28.114 28.114 0 01-3.588 3 .65.65 0 01-.376.123zm-4.18-6.478l4.281 4.942a24.5 24.5 0 005.453-5.453l-4.94-4.282a20.434 20.434 0 01-4.794 4.794zM622.071 434.442a.673.673 0 01-.089-.007.657.657 0 01-.458-.288 19.055 19.055 0 00-5.456-5.457.655.655 0 01-.135-.975l5.151-5.946a.657.657 0 01.874-.1 26.217 26.217 0 016.589 6.589.652.652 0 01-.1.874l-5.948 5.156a.652.652 0 01-.428.154zm-4.668-6.424a20.406 20.406 0 014.794 4.8l4.94-4.283a24.461 24.461 0 00-5.453-5.452zM589.729 467.574a.652.652 0 01-.381-.122 26.354 26.354 0 01-6.588-6.589.655.655 0 01.1-.874l5.949-5.156a.654.654 0 01.975.136 19.05 19.05 0 005.456 5.455.656.656 0 01.136.976l-5.158 5.949a.653.653 0 01-.489.225zm-5.554-6.99a24.571 24.571 0 005.453 5.453l4.283-4.942a20.674 20.674 0 01-2.6-2.2 20.382 20.382 0 01-2.195-2.6zM601.73 437.687a.655.655 0 01-.654-.654v-1.963a.654.654 0 011.309 0v1.963a.654.654 0 01-.655.654zM605.656 437.687a.655.655 0 01-.654-.654v-1.963a.654.654 0 011.309 0v1.963a.654.654 0 01-.655.654zM609.582 437.687a.655.655 0 01-.654-.654v-1.963a.654.654 0 011.309 0v1.963a.654.654 0 01-.655.654zM601.73 454.7a.655.655 0 01-.654-.654v-1.963a.654.654 0 011.309 0v1.963a.654.654 0 01-.655.654zM605.656 454.7a.654.654 0 01-.654-.654v-1.963a.654.654 0 111.309 0v1.963a.654.654 0 01-.655.654zM609.582 454.7a.655.655 0 01-.654-.654v-1.963a.654.654 0 111.309 0v1.963a.654.654 0 01-.655.654zM615.144 441.286h-1.963a.654.654 0 010-1.309h1.963a.654.654 0 110 1.309zM615.144 445.212h-1.963a.654.654 0 010-1.309h1.963a.654.654 0 110 1.309zM615.144 449.138h-1.963a.654.654 0 010-1.309h1.963a.654.654 0 110 1.309zM598.131 441.286h-1.963a.654.654 0 110-1.309h1.963a.654.654 0 110 1.309zM598.131 445.212h-1.963a.654.654 0 110-1.309h1.963a.654.654 0 110 1.309zM598.131 449.138h-1.963a.654.654 0 110-1.309h1.963a.654.654 0 110 1.309zM606.93 450.272a.654.654 0 01-.648-.564.628.628 0 00-1.251 0 .664.664 0 01-.283.453.653.653 0 01-.525.09 5.86 5.86 0 01-4.261-4.262.654.654 0 01.544-.806.628.628 0 000-1.251.654.654 0 01-.544-.807 5.862 5.862 0 014.261-4.262.654.654 0 01.807.543.628.628 0 001.251 0 .654.654 0 01.807-.544 5.859 5.859 0 014.264 4.262.656.656 0 01-.546.807.628.628 0 000 1.251.654.654 0 01.546.806 5.863 5.863 0 01-4.264 4.264.657.657 0 01-.158.02zm-1.273-2.443a1.921 1.921 0 011.678.974 4.555 4.555 0 002.569-2.569 1.929 1.929 0 010-3.353 4.557 4.557 0 00-2.569-2.57 1.93 1.93 0 01-3.354 0 4.556 4.556 0 00-2.568 2.569 1.931 1.931 0 010 3.353 4.554 4.554 0 002.568 2.568 1.922 1.922 0 011.676-.972zM612.871 434.296a.652.652 0 01-.361-.109 12.612 12.612 0 00-13.7 0 .654.654 0 01-.824-.082l-2.81-2.81a.654.654 0 11.925-.925l2.439 2.439a13.93 13.93 0 0114.244 0l2.438-2.441a.654.654 0 11.925.925l-2.808 2.811a.652.652 0 01-.468.192zM619.383 455.235a.652.652 0 01-.463-.191l-2.81-2.811a.654.654 0 01-.084-.823 12.41 12.41 0 000-13.706.654.654 0 01.084-.823l2.81-2.81a.654.654 0 11.925.925l-2.439 2.439a13.721 13.721 0 010 14.244l2.439 2.439a.655.655 0 010 .925.647.647 0 01-.462.192zM615.679 458.937a.653.653 0 01-.463-.192l-2.438-2.439a13.931 13.931 0 01-14.244 0l-2.439 2.439a.654.654 0 01-.925-.925l2.81-2.81a.654.654 0 01.824-.084 12.609 12.609 0 0013.7 0 .654.654 0 01.824.084l2.808 2.81a.655.655 0 01-.462 1.118z" fill="#263238"/><g><path d="M591.932 455.235a.655.655 0 01-.462-1.118l2.436-2.438a13.718 13.718 0 010-14.242l-2.439-2.438a.654.654 0 11.925-.925l2.81 2.81a.656.656 0 01.084.823 12.407 12.407 0 000 13.7.656.656 0 01-.084.823l-2.81 2.81a.653.653 0 01-.46.195z" fill="#263238"/></g></g></svg>