<svg width="47" height="92" viewBox="0 0 47 92" fill="none" xmlns="http://www.w3.org/2000/svg">
<path d="M40.9844 6.92969H44.9464V18.0163C44.9464 18.2283 44.8622 18.4317 44.7122 18.5816C44.5623 18.7315 44.359 18.8157 44.147 18.8157H41.7838C41.5718 18.8157 41.3684 18.7315 41.2185 18.5816C41.0686 18.4317 40.9844 18.2283 40.9844 18.0163V6.92969Z" fill="#59D8FE"/>
<path d="M43.9555 19.3109H41.9744C41.5804 19.3105 41.2027 19.1538 40.924 18.8751C40.6454 18.5965 40.4887 18.2187 40.4883 17.8247V6.92924C40.4882 6.86412 40.5009 6.79962 40.5258 6.73944C40.5507 6.67925 40.5872 6.62456 40.6332 6.57851C40.6793 6.53247 40.7339 6.49594 40.7941 6.47107C40.8543 6.4462 40.9188 6.43349 40.9839 6.4336H44.9459C45.0111 6.43339 45.0756 6.44604 45.1359 6.47087C45.1961 6.49571 45.2508 6.53215 45.2969 6.57822C45.343 6.62429 45.3795 6.67901 45.4043 6.73924C45.4291 6.79947 45.4418 6.8641 45.4416 6.92924V17.8247C45.4414 18.2188 45.2847 18.5967 45.0061 18.8753C44.7274 19.154 44.3495 19.3107 43.9555 19.3109V19.3109ZM41.4772 7.42489V17.8247C41.4774 17.9561 41.5297 18.082 41.6226 18.175C41.7155 18.2679 41.8414 18.3202 41.9728 18.3204H43.9555C44.0869 18.3204 44.213 18.2682 44.3059 18.1752C44.3989 18.0823 44.4511 17.9562 44.4511 17.8247V7.42645L41.4772 7.42489Z" fill="#263238"/>
<path d="M42.9605 7.42876C42.829 7.42876 42.703 7.37651 42.61 7.28355C42.5171 7.1906 42.4648 7.06457 42.4648 6.93312V0.495257C42.4648 0.363908 42.517 0.237893 42.6099 0.145015C42.7028 0.0521375 42.8287 0 42.9601 0C43.0914 0 43.2174 0.0521375 43.3103 0.145015C43.4032 0.237893 43.4553 0.363908 43.4553 0.495257V6.93312C43.4554 6.99817 43.4427 7.0626 43.4179 7.12273C43.3931 7.18286 43.3566 7.23752 43.3107 7.28355C43.2647 7.32959 43.2101 7.36608 43.1501 7.391C43.09 7.41592 43.0255 7.42876 42.9605 7.42876V7.42876Z" fill="#263238"/>
<path d="M44.9385 16.3503H40.9765C40.9098 16.353 40.8432 16.3422 40.7808 16.3185C40.7184 16.2948 40.6614 16.2587 40.6132 16.2125C40.5651 16.1662 40.5268 16.1108 40.5006 16.0493C40.4744 15.9879 40.4609 15.9218 40.4609 15.855C40.4609 15.7883 40.4744 15.7222 40.5006 15.6607C40.5268 15.5993 40.5651 15.5438 40.6132 15.4976C40.6614 15.4513 40.7184 15.4153 40.7808 15.3916C40.8432 15.3679 40.9098 15.3571 40.9765 15.3598H44.9385C45.0052 15.3571 45.0718 15.3679 45.1342 15.3916C45.1966 15.4153 45.2536 15.4513 45.3018 15.4976C45.3499 15.5438 45.3882 15.5993 45.4144 15.6607C45.4406 15.7222 45.4541 15.7883 45.4541 15.855C45.4541 15.9218 45.4406 15.9879 45.4144 16.0493C45.3882 16.1108 45.3499 16.1662 45.3018 16.2125C45.2536 16.2587 45.1966 16.2948 45.1342 16.3185C45.0718 16.3422 45.0052 16.353 44.9385 16.3503V16.3503Z" fill="#263238"/>
<path d="M1.92969 6.92969H5.8917V18.0163C5.8917 18.2283 5.80748 18.4317 5.65755 18.5816C5.50763 18.7315 5.30429 18.8157 5.09227 18.8157H2.72913C2.5171 18.8157 2.31376 18.7315 2.16384 18.5816C2.01391 18.4317 1.92969 18.2283 1.92969 18.0163V6.92969Z" fill="#59D8FE"/>
<path d="M4.90076 19.3109H2.91973C2.52571 19.3105 2.14796 19.1538 1.86935 18.8751C1.59073 18.5965 1.43402 18.2187 1.43359 17.8247V6.92924C1.43349 6.86412 1.44622 6.79962 1.47109 6.73944C1.49596 6.67925 1.53249 6.62456 1.57854 6.57851C1.62458 6.53247 1.67925 6.49594 1.73943 6.47107C1.79962 6.4462 1.86412 6.43349 1.92924 6.4336H5.89125C5.9564 6.43339 6.02095 6.44604 6.08118 6.47087C6.14141 6.49571 6.19614 6.53215 6.2422 6.57822C6.28827 6.62429 6.32476 6.67901 6.3496 6.73924C6.37443 6.79947 6.38711 6.8641 6.3869 6.92924V17.8247C6.38669 18.2188 6.23005 18.5967 5.95139 18.8753C5.67273 19.154 5.29485 19.3107 4.90076 19.3109V19.3109ZM2.4225 7.42489V17.8247C2.42271 17.9561 2.475 18.082 2.5679 18.175C2.66081 18.2679 2.78676 18.3202 2.91815 18.3204H4.90076C5.03222 18.3204 5.15827 18.2682 5.25122 18.1752C5.34418 18.0823 5.39641 17.9562 5.39641 17.8247V7.42645L2.4225 7.42489Z" fill="#263238"/>
<path d="M3.9058 7.42876C3.77435 7.42876 3.64827 7.37651 3.55532 7.28355C3.46237 7.1906 3.41016 7.06457 3.41016 6.93312V0.495257C3.41016 0.363908 3.46232 0.237893 3.5552 0.145015C3.64807 0.0521375 3.77404 0 3.90539 0C4.03674 0 4.16273 0.0521375 4.25561 0.145015C4.34848 0.237893 4.40065 0.363908 4.40065 0.495257V6.93312C4.40075 6.99817 4.38804 7.0626 4.36322 7.12273C4.3384 7.18286 4.30196 7.23752 4.256 7.28355C4.21004 7.32959 4.15546 7.36608 4.09537 7.391C4.03528 7.41592 3.97086 7.42876 3.9058 7.42876V7.42876Z" fill="#263238"/>
<path d="M5.88382 16.3503H1.92181C1.85509 16.353 1.78854 16.3422 1.72612 16.3185C1.66369 16.2948 1.60668 16.2587 1.55854 16.2125C1.51039 16.1662 1.47209 16.1108 1.44592 16.0493C1.41975 15.9879 1.40625 15.9218 1.40625 15.855C1.40625 15.7883 1.41975 15.7222 1.44592 15.6607C1.47209 15.5993 1.51039 15.5438 1.55854 15.4976C1.60668 15.4513 1.66369 15.4153 1.72612 15.3916C1.78854 15.3679 1.85509 15.3571 1.92181 15.3598H5.88382C5.95053 15.3571 6.0171 15.3679 6.07953 15.3916C6.14195 15.4153 6.19894 15.4513 6.24709 15.4976C6.29524 15.5438 6.33356 15.5993 6.35973 15.6607C6.3859 15.7222 6.39937 15.7883 6.39937 15.855C6.39937 15.9218 6.3859 15.9879 6.35973 16.0493C6.33356 16.1108 6.29524 16.1662 6.24709 16.2125C6.19894 16.2587 6.14195 16.2948 6.07953 16.3185C6.0171 16.3422 5.95053 16.353 5.88382 16.3503V16.3503Z" fill="#263238"/>
<path d="M42.3822 19.5547H43.3782C44.4861 19.5547 45.383 20.4472 45.3759 21.555C45.2928 34.4453 44.9188 58.2341 44.9188 68.5531C43.7057 78.7919 38.1307 84.9694 35.1793 86.4292C35.0057 86.5151 34.8085 86.5347 34.6184 86.4974C31.3445 85.8562 26.8189 84.238 32.4063 81.7527C38.1614 79.1928 40.1216 71.8864 40.3822 68.5531V21.5547C40.3822 20.4501 41.2776 19.5547 42.3822 19.5547Z" stroke="#263238" stroke-width="1.1"/>
<path d="M4.41467 19.5547H3.41867C2.31078 19.5547 1.41387 20.4472 1.421 21.555C1.50403 34.4453 1.87811 58.2341 1.87811 68.5531C3.09121 78.7919 8.66621 84.9694 11.6176 86.4292C11.7912 86.5151 11.9884 86.5347 12.1785 86.4974C15.4524 85.8562 19.978 84.238 14.3906 81.7527C8.63543 79.1928 6.67532 71.8864 6.41467 68.5531V21.5547C6.41467 20.4501 5.51924 19.5547 4.41467 19.5547Z" stroke="#263238" stroke-width="1.1"/>
<circle cx="23.8122" cy="68.2848" r="22.2622" fill="white" stroke="#263238" stroke-width="1.1"/>
<circle cx="23.8143" cy="68.283" r="17.7408" fill="white" stroke="#263238" stroke-width="1.1"/>
<path d="M9.21509 30.4449L9.21509 29.7577C9.21509 29.6666 9.25129 29.5791 9.31574 29.5147C9.38018 29.4503 9.46758 29.4141 9.55872 29.4141C9.64985 29.4141 9.73725 29.4503 9.80169 29.5147C9.86613 29.5791 9.90234 29.6666 9.90234 29.7577L9.90234 30.4449C9.90234 30.5361 9.86613 30.6235 9.80169 30.6879C9.73725 30.7524 9.64985 30.7886 9.55872 30.7886C9.46758 30.7886 9.38018 30.7524 9.31574 30.6879C9.25129 30.6235 9.21509 30.5361 9.21509 30.4449V30.4449Z" fill="#263238"/>
<path d="M9.21509 39.3833L9.21509 31.8241C9.21509 31.733 9.25129 31.6456 9.31574 31.5811C9.38018 31.5167 9.46758 31.4805 9.55872 31.4805C9.64985 31.4805 9.73725 31.5167 9.80169 31.5811C9.86613 31.6456 9.90234 31.733 9.90234 31.8241L9.90234 39.3833C9.90234 39.4744 9.86613 39.5618 9.80169 39.6262C9.73725 39.6907 9.64985 39.7269 9.55872 39.7269C9.46758 39.7269 9.38018 39.6907 9.31574 39.6262C9.25129 39.5618 9.21509 39.4744 9.21509 39.3833V39.3833Z" fill="#263238"/>
<path d="M11.2776 43.5113L11.2776 42.8241C11.2776 42.733 11.3138 42.6456 11.3782 42.5811C11.4427 42.5167 11.5301 42.4805 11.6212 42.4805C11.7124 42.4805 11.7997 42.5167 11.8642 42.5811C11.9286 42.6456 11.9648 42.733 11.9648 42.8241L11.9648 43.5113C11.9648 43.6025 11.9286 43.6899 11.8642 43.7543C11.7997 43.8188 11.7124 43.855 11.6212 43.855C11.5301 43.855 11.4427 43.8188 11.3782 43.7543C11.3138 43.6899 11.2776 43.6025 11.2776 43.5113Z" fill="#263238"/>
<path d="M11.2776 41.4419L11.2776 33.8827C11.2776 33.7916 11.3138 33.7041 11.3782 33.6397C11.4427 33.5753 11.5301 33.5391 11.6212 33.5391C11.7124 33.5391 11.7997 33.5753 11.8642 33.6397C11.9286 33.7041 11.9648 33.7916 11.9648 33.8827L11.9648 41.4419C11.9648 41.533 11.9286 41.6204 11.8642 41.6848C11.7997 41.7493 11.7124 41.7855 11.6212 41.7855C11.5301 41.7855 11.4427 41.7493 11.3782 41.6848C11.3138 41.6204 11.2776 41.533 11.2776 41.4419Z" fill="#263238"/>
</svg>
