<svg xmlns="http://www.w3.org/2000/svg" width="75.579" height="78.057" viewBox="0 0 75.579 78.057"><path d="M36.55 70.625h-9.912a.62.62 0 110-1.239h9.912a.62.62 0 110 1.239z" fill="#263238"/><path d="M50.799 70.619h-9.292a.62.62 0 110-1.239h9.292a2.481 2.481 0 002.478-2.478V6.191a2.48 2.48 0 00-2.478-2.478H12.39a2.48 2.48 0 00-2.478 2.478v60.711a2.481 2.481 0 002.478 2.478h9.292a.62.62 0 110 1.239H12.39a3.722 3.722 0 01-3.717-3.717V6.191a3.721 3.721 0 013.717-3.717h38.409a3.72 3.72 0 013.717 3.717v60.711a3.721 3.721 0 01-3.717 3.717z" fill="#263238"/><g transform="translate(13.629 7.434)"><rect width="34.692" height="16.107" rx="1" transform="translate(.62 .619)" fill="#59d8fd"/><path d="M34.072 17.341H1.858A1.861 1.861 0 010 15.483V1.854A1.861 1.861 0 011.858-.004h32.214a1.86 1.86 0 011.859 1.858v13.629a1.86 1.86 0 01-1.859 1.858zM1.858 1.241a.62.62 0 00-.619.62V15.49a.62.62 0 00.619.619h32.214a.62.62 0 00.62-.619V1.861a.62.62 0 00-.62-.62z" fill="#263238"/></g><path d="M31.594 54.516a11.77 11.77 0 1111.77-11.77 11.784 11.784 0 01-11.77 11.77zm0-22.3a10.531 10.531 0 1010.531 10.531 10.543 10.543 0 00-10.531-10.531z" fill="#263238"/><path d="M28.09 49.859a1.856 1.856 0 01-1.315-.543l-1.752-1.753a1.861 1.861 0 010-2.629l8.761-8.76a1.861 1.861 0 012.628 0l1.753 1.752a1.862 1.862 0 010 2.628l-8.761 8.762a1.856 1.856 0 01-1.314.543zm7.008-12.99a.617.617 0 00-.437.181L25.9 45.81a.621.621 0 000 .877l1.752 1.752a.619.619 0 00.877 0l8.761-8.761a.622.622 0 000-.876l-1.753-1.752a.617.617 0 00-.439-.18zm2.63 3.247zM20.443 21.063a.62.62 0 01-.62-.619V13.01a.62.62 0 011.239 0v7.434a.619.619 0 01-.619.619zM24.16 21.063a.62.62 0 01-.62-.62v-4.956a.62.62 0 011.239 0v4.956a.619.619 0 01-.619.62zM28.496 21.063a.62.62 0 01-.62-.62v-4.956a.62.62 0 011.239 0v4.956a.619.619 0 01-.619.62zM45.275 14.868h-9.912a.62.62 0 01-.62-.62V11.77a.619.619 0 01.62-.62h9.912a.618.618 0 01.62.62v2.478a.619.619 0 01-.62.62zm-9.294-1.239h8.674v-1.237h-8.674zM45.275 21.063h-9.912a.62.62 0 01-.62-.62v-2.478a.619.619 0 01.62-.62h9.912a.618.618 0 01.62.62v2.478a.619.619 0 01-.62.62zm-9.294-1.239h8.674v-1.237h-8.674zM31.594 29.736a.62.62 0 01-.62-.62v-1.239a.62.62 0 011.239 0v1.239a.619.619 0 01-.619.62zM31.594 58.233a.62.62 0 01-.62-.62v-1.239a.62.62 0 111.239 0v1.239a.619.619 0 01-.619.62zM46.462 43.367h-1.239a.62.62 0 010-1.239h1.239a.62.62 0 010 1.239zM17.965 43.367h-1.239a.62.62 0 010-1.239h1.239a.62.62 0 010 1.239zM42.108 53.878a.623.623 0 01-.439-.181l-.876-.876a.62.62 0 01.876-.876l.876.876a.619.619 0 01-.437 1.057zM21.957 33.727a.612.612 0 01-.437-.181l-.876-.876a.62.62 0 01.876-.876l.876.876a.619.619 0 01-.439 1.057zM21.081 53.878a.619.619 0 01-.437-1.057l.876-.876a.62.62 0 01.876.876l-.876.876a.622.622 0 01-.439.181zM41.233 33.727a.619.619 0 01-.439-1.057l.876-.876a.62.62 0 01.876.876l-.876.876a.612.612 0 01-.437.181zM24.16 66.286a3.1 3.1 0 113.1-3.1 3.1 3.1 0 01-3.1 3.1zm0-4.956a1.858 1.858 0 101.859 1.858 1.861 1.861 0 00-1.859-1.856zM39.028 66.286a3.1 3.1 0 113.1-3.1 3.1 3.1 0 01-3.1 3.1zm0-4.956a1.858 1.858 0 101.859 1.858 1.861 1.861 0 00-1.859-1.856z" fill="#263238"/><path d="M58.233 78.057H27.258a3.722 3.722 0 01-3.717-3.717v-8.673a.62.62 0 011.239 0v8.673a2.481 2.481 0 002.478 2.478h30.975a2.481 2.481 0 002.478-2.478V51.419a.62.62 0 111.239 0V74.34a3.721 3.721 0 01-3.717 3.717z" fill="#263238"/><path d="M58.853 34.072h4.956V47.94a1 1 0 01-1 1h-2.956a1 1 0 01-1-1V34.072z" fill="#edfafe"/><path d="M62.574 49.56h-2.478a1.861 1.861 0 01-1.859-1.859V34.072a.619.619 0 01.62-.62h4.956a.618.618 0 01.62.62v13.629a1.86 1.86 0 01-1.859 1.859zm-3.1-14.868v13.009a.621.621 0 00.62.62h2.48a.62.62 0 00.62-.62V34.694z" fill="#263238"/><path fill="#ff5252" d="M61.331 34.071v-8.053"/><path d="M61.331 34.691a.62.62 0 01-.62-.62v-8.053a.62.62 0 111.239 0v8.053a.619.619 0 01-.619.62zM63.808 45.845h-4.956a.62.62 0 110-1.239h4.956a.62.62 0 110 1.239zM68.145 74.342H42.126a3.722 3.722 0 01-3.717-3.717v-4.956a.62.62 0 111.239 0v4.956a2.482 2.482 0 002.478 2.478h26.019a2.481 2.481 0 002.478-2.478v-22.3a.62.62 0 111.239 0v22.3a3.721 3.721 0 01-3.717 3.717z" fill="#263238"/><path d="M68.765 30.974h4.956v13.868a1 1 0 01-1 1h-2.956a1 1 0 01-1-1V30.974z" fill="#edfafe"/><path d="M72.486 46.462h-2.478a1.861 1.861 0 01-1.858-1.858V30.975a.619.619 0 01.62-.619h4.956a.618.618 0 01.62.619v13.629a1.86 1.86 0 01-1.86 1.858zm-3.1-14.866v13.01a.621.621 0 00.619.62h2.481a.621.621 0 00.62-.62v-13.01z" fill="#263238"/><path fill="#ff5252" d="M71.243 30.974v-8.053"/><path d="M71.242 31.594a.62.62 0 01-.62-.62v-8.053a.62.62 0 011.239 0v8.053a.619.619 0 01-.619.62zM73.72 42.747h-4.956a.62.62 0 010-1.239h4.956a.62.62 0 010 1.239zM72.481 6.195a.62.62 0 01-.62-.62V.619a.62.62 0 011.239 0v4.956a.619.619 0 01-.619.62z" fill="#263238"/><path d="M74.959 3.719h-4.956a.62.62 0 010-1.239h4.956a.62.62 0 010 1.239z" fill="#263238"/><g><path d="M64.427 14.868a.62.62 0 01-.62-.62V9.292a.62.62 0 011.239 0v4.956a.619.619 0 01-.619.62z" fill="#263238"/></g><g><path d="M66.905 12.392h-4.956a.62.62 0 010-1.239h4.956a.62.62 0 010 1.239z" fill="#263238"/></g><g><path d="M1.841 74.342H.621a.62.62 0 010-1.239h1.22a.62.62 0 010 1.239z" fill="#263238"/></g><g><path d="M19.466 74.342H4.278a.62.62 0 010-1.239h15.188a.62.62 0 010 1.239z" fill="#263238"/></g></svg>