<svg xmlns="http://www.w3.org/2000/svg" width="93.59" height="75.311" viewBox="0 0 93.59 75.311"><path d="M30.711 48.257H19.743a1.462 1.462 0 01-1.462-1.462V29.246a1.461 1.461 0 011.462-1.462h49.72a1.462 1.462 0 011.458 1.462v17.548a1.463 1.463 0 01-1.462 1.462h-3.656" fill="#59d8fd"/><path d="M69.461 48.993h-3.654a.731.731 0 110-1.462h3.654a.731.731 0 00.728-.738V29.247a.731.731 0 00-.731-.731h-49.72a.731.731 0 00-.731.731v17.546a.731.731 0 00.731.731h10.969a.731.731 0 110 1.462H19.742a2.2 2.2 0 01-2.194-2.193V29.247a2.2 2.2 0 012.194-2.194h49.72a2.2 2.2 0 012.194 2.194v17.546a2.2 2.2 0 01-2.195 2.2zM58.496 18.28a.728.728 0 01-.6-.307l-3.438-4.811h-19.72L31.3 17.973a.731.731 0 11-1.189-.85l3.656-5.118a.729.729 0 01.594-.306h20.473a.732.732 0 01.6.306l3.656 5.118a.731.731 0 01-.594 1.157zM50.451 10.236a.731.731 0 01-.731-.731V5.849H39.483v3.656a.731.731 0 01-1.462 0V5.118a.73.73 0 01.731-.731h11.7a.73.73 0 01.731.731v4.387a.73.73 0 01-.732.731z" fill="#263238"/><path d="M51.182 5.849H38.02a2.2 2.2 0 01-2.194-2.194V2.193A2.2 2.2 0 0138.02-.001h13.161a2.2 2.2 0 012.194 2.194v1.462a2.2 2.2 0 01-2.193 2.194zM38.021 1.462a.731.731 0 00-.731.731v1.462a.731.731 0 00.731.731h13.161a.731.731 0 00.731-.731V2.193a.731.731 0 00-.731-.731z" fill="#263238"/><path d="M73.119 74.579H44.604a2.922 2.922 0 01-2.41-1.268l-8.043-11.7a2.913 2.913 0 01-.515-1.657V46.795a2.925 2.925 0 015.849 0v12.253l6.657 9.682h26.977a2.925 2.925 0 010 5.849z" fill="#edfafe"/><path d="M73.117 75.311H44.602a3.653 3.653 0 01-3.011-1.585l-8.047-11.699a3.636 3.636 0 01-.645-2.071V46.795a3.656 3.656 0 017.312 0V58.82l6.311 9.179h26.591a3.656 3.656 0 110 7.312zM36.558 44.602a2.2 2.2 0 00-2.194 2.193v13.161a2.188 2.188 0 00.388 1.243l8.043 11.7a2.193 2.193 0 001.806.951h28.516a2.194 2.194 0 100-4.387H46.144a.731.731 0 01-.6-.317l-6.658-9.682a.736.736 0 01-.129-.414V46.795a2.2 2.2 0 00-2.198-2.194z" fill="#263238"/><path d="M74.577 66.537h-3.5a.731.731 0 110-1.462h3.5a2.928 2.928 0 002.925-2.925V24.129a2.928 2.928 0 00-2.925-2.925H14.623a2.928 2.928 0 00-2.925 2.925v29.247a2.928 2.928 0 002.925 2.925h8.043a.729.729 0 01.377.1l8.473 5.083a.732.732 0 01-.753 1.255l-8.3-4.979h-7.841a4.392 4.392 0 01-4.387-4.387V24.129a4.391 4.391 0 014.387-4.387h59.955a4.39 4.39 0 014.387 4.387V62.15a4.391 4.391 0 01-4.387 4.387zM85.547 51.913H81.16a.731.731 0 110-1.462h3.656V34.365H81.16a.731.731 0 110-1.462h4.387a.73.73 0 01.731.731v17.548a.731.731 0 01-.731.731z" fill="#263238"/><path d="M85.549 60.688a.731.731 0 01-.731-.731v-35.1a.731.731 0 01.731-.731 8.051 8.051 0 018.043 8.043v20.473a8.052 8.052 0 01-8.043 8.046zm.731-35.055v33.552a6.589 6.589 0 005.849-6.54V32.169a6.588 6.588 0 00-5.849-6.537zM10.967 43.874H6.58a.731.731 0 01-.731-.731v-8.774a.731.731 0 01.731-.731h4.387a.73.73 0 01.731.731v8.774a.731.731 0 01-.731.731zm-3.656-1.462h2.925V35.1H7.311z" fill="#263238"/><path d="M6.581 39.483H4.387A4.392 4.392 0 010 35.096V21.204a.731.731 0 01.731-.731h2.194a4.39 4.39 0 014.387 4.387v13.892a.731.731 0 01-.731.731zM1.463 21.935v13.161a2.928 2.928 0 002.925 2.925H5.85V24.86a2.928 2.928 0 00-2.925-2.925z" fill="#263238"/><path d="M2.925 57.031H.731A.731.731 0 010 56.3V42.408a4.391 4.391 0 014.387-4.387h2.194a.73.73 0 01.731.731v13.892a4.391 4.391 0 01-4.387 4.387zm-1.462-1.462h1.462a2.928 2.928 0 002.925-2.925V39.483H4.388a2.928 2.928 0 00-2.925 2.925z" fill="#263238"/><path d="M55.829 65.81l-4.646-6.758V46.795a2.925 2.925 0 10-5.849 0v13.161a2.913 2.913 0 00.515 1.657l2.882 4.193" fill="#edfafe"/><path d="M48.731 66.536a.73.73 0 01-.6-.317l-2.889-4.192a3.636 3.636 0 01-.645-2.071V46.795a3.656 3.656 0 017.312 0V58.82l4.519 6.572a.731.731 0 11-1.2.828l-4.647-6.757a.736.736 0 01-.129-.414V46.795a2.194 2.194 0 00-4.387 0v13.161a2.189 2.189 0 00.388 1.243l2.882 4.193a.731.731 0 01-.6 1.145z" fill="#263238"/><path d="M67.528 65.81l-4.646-6.758V46.795a2.925 2.925 0 00-5.849 0v13.161a2.913 2.913 0 00.515 1.657l2.882 4.193" fill="#edfafe"/><path d="M60.43 66.536a.73.73 0 01-.6-.317l-2.889-4.192a3.636 3.636 0 01-.645-2.071V46.795a3.656 3.656 0 017.312 0V58.82l4.519 6.572a.731.731 0 11-1.2.828l-4.647-6.757a.736.736 0 01-.129-.414V46.795a2.194 2.194 0 00-4.387 0v13.161a2.189 2.189 0 00.388 1.243l2.882 4.193a.731.731 0 01-.6 1.145z" fill="#263238"/><g transform="translate(35.096 32.172)"><rect width="17.548" height="5.849" rx="1" transform="translate(.732 .731)" fill="#fff"/><path d="M16.817 7.312H2.193A2.2 2.2 0 01-.001 5.118V2.193A2.2 2.2 0 012.193-.001h14.623a2.2 2.2 0 012.194 2.194v2.925a2.2 2.2 0 01-2.193 2.194zM2.194 1.463a.731.731 0 00-.731.731v2.925a.731.731 0 00.731.731h14.623a.731.731 0 00.731-.731V2.194a.731.731 0 00-.731-.731z" fill="#263238"/></g><g><path d="M2.194 75.31H.731a.731.731 0 010-1.462h1.462a.731.731 0 010 1.462z" fill="#263238"/></g><g><path d="M19.742 75.31H5.118a.731.731 0 010-1.462h14.623a.731.731 0 110 1.462z" fill="#263238"/></g><g><path d="M27.054 70.923H12.43a.731.731 0 010-1.462h14.623a.731.731 0 110 1.462z" fill="#263238"/></g></svg>