<svg xmlns="http://www.w3.org/2000/svg" width="77" height="76.399" viewBox="0 0 77 76.399"><circle cx="18.047" cy="18.047" r="18.047" fill="#40c4ff" transform="translate(40.306)"/><path d="M4.211 76.399H.602a.6.6 0 110-1.2h3.609a.6.6 0 010 1.2zM76.399 76.399H6.618a.6.6 0 110-1.2H76.4a.6.6 0 010 1.2zM73.127 71.587h-2.743a.6.6 0 110-1.2h2.743a.6.6 0 00.569-.412l1.471-4.412a1.815 1.815 0 00-.908-2.187l-.546-.271a.6.6 0 01-.321-.416l-.8-3.827a5.382 5.382 0 00-4.37-4.223l-9.819-1.707a.587.587 0 01-.274-.125l-13.986-11.3a5.427 5.427 0 00-3.4-1.2H16.466a5.428 5.428 0 00-4.393 2.249l-5.568 7.728a.6.6 0 01-.488.25H2.126a.6.6 0 00-.516.912l2.517 4.193a.6.6 0 01.085.309v6.617a.6.6 0 01-.6.6 1.828 1.828 0 00-1.789 2.214l.97 4.53a.606.606 0 00.588.475h2.637a.6.6 0 110 1.2H3.381a1.813 1.813 0 01-1.764-1.427l-.971-4.53a3.032 3.032 0 012.364-3.608v-5.91L.58 52.058a1.8 1.8 0 011.547-2.732H5.71l5.389-7.478a6.629 6.629 0 015.368-2.749h24.271a6.637 6.637 0 014.158 1.469l13.864 11.2 9.665 1.682a6.579 6.579 0 015.342 5.16l.743 3.542.285.141a3.023 3.023 0 011.515 3.645l-1.47 4.412a1.8 1.8 0 01-1.713 1.237z" fill="#263238"/><path d="M49.929 71.586h-23.46a.6.6 0 110-1.2h23.46a.6.6 0 110 1.2zM60.157 76.395a8.422 8.422 0 118.422-8.422 8.433 8.433 0 01-8.422 8.422zm0-15.641a7.219 7.219 0 107.219 7.219 7.227 7.227 0 00-7.219-7.215z" fill="#263238"/><path d="M60.157 72.789a4.813 4.813 0 114.813-4.812 4.817 4.817 0 01-4.813 4.812zm0-8.422a3.609 3.609 0 103.609 3.609 3.613 3.613 0 00-3.609-3.609zM16.244 76.395a8.422 8.422 0 118.422-8.422 8.432 8.432 0 01-8.422 8.422zm0-15.641a7.219 7.219 0 107.219 7.219 7.226 7.226 0 00-7.219-7.215z" fill="#263238"/><path d="M16.243 72.789a4.813 4.813 0 114.813-4.812 4.817 4.817 0 01-4.813 4.812zm0-8.422a3.609 3.609 0 103.609 3.609 3.613 3.613 0 00-3.609-3.609zM58.505 52.938H19.981a3.609 3.609 0 01-3.38-4.877l1.354-3.609a3.627 3.627 0 013.38-2.341h25.251a.6.6 0 01.379.134l11.916 9.625a.6.6 0 01-.379 1.07zm-39.421-8.063l-1.354 3.609a2.406 2.406 0 002.253 3.251h36.818l-10.426-8.422h-25.04a2.417 2.417 0 00-2.253 1.562zM57.299 58.892a.6.6 0 01-.6-.6v-3.548a.6.6 0 111.2 0v3.548a.6.6 0 01-.6.6z" fill="#263238"/><path d="M33.087 52.938a.6.6 0 01-.6-.6v-9.625a.6.6 0 111.2 0v9.625a.6.6 0 01-.6.6zM10.984 58.351h-2.41a1.807 1.807 0 01-1.8-1.8v-2.405a1.807 1.807 0 011.8-1.8h2.41a1.807 1.807 0 011.8 1.8v2.405a1.807 1.807 0 01-1.8 1.8zM8.578 53.54a.6.6 0 00-.6.6v2.405a.6.6 0 00.6.6h2.406a.6.6 0 00.6-.6V54.14a.6.6 0 00-.6-.6zM73.98 63.165h-3.336a.6.6 0 01-.538-.333l-1.535-3.07a1.8 1.8 0 011.613-2.612h2.688a.6.6 0 01.559.379 6.637 6.637 0 01.333 1.084l.8 3.827a.6.6 0 01-.588.725zm-2.965-1.2h2.222l-.651-3.1a4.674 4.674 0 00-.137-.507h-2.264a.6.6 0 00-.538.87zM58.352 25.867a.6.6 0 01-.6-.6V10.83a.6.6 0 111.2 0v14.437a.6.6 0 01-.6.6z" fill="#263238"/><path d="M58.351 11.43a.6.6 0 01-.425-.177l-1.8-1.8a.602.602 0 01.851-.851l1.379 1.38 1.38-1.38a.602.602 0 01.851.851l-1.8 1.8a.6.6 0 01-.436.177zM60.156 27.672a.6.6 0 01-.425-.177l-1.38-1.379-1.379 1.379a.601.601 0 01-.851-.85l1.8-1.8a.6.6 0 01.851 0l1.8 1.8a.6.6 0 01-.426 1.027zM64.605 22.258a.6.6 0 01-.3-.082l-12.5-7.219a.6.6 0 11.6-1.041l12.5 7.219a.6.6 0 01-.3 1.123z" fill="#263238"/><path d="M49.636 15.7a.6.6 0 01-.155-1.184l1.884-.5-.505-1.884a.6.6 0 01.426-.736.609.609 0 01.738.426l.659 2.465a.6.6 0 01-.426.736l-2.465.66a.622.622 0 01-.156.017zM65.264 24.723a.605.605 0 01-.581-.446l-.661-2.465a.6.6 0 01.427-.738l2.465-.659a.61.61 0 01.736.426.6.6 0 01-.427.736l-1.883.5.505 1.885a.6.6 0 01-.427.736.621.621 0 01-.154.025zM52.101 22.257a.6.6 0 01-.3-1.122l12.5-7.219a.6.6 0 01.6 1.041l-12.5 7.219a.6.6 0 01-.3.081z" fill="#263238"/><path d="M67.069 15.7a.62.62 0 01-.154-.021l-2.465-.66a.6.6 0 01-.427-.736l.661-2.465a.611.611 0 01.736-.426.6.6 0 01.427.736l-.505 1.884 1.883.5a.6.6 0 01-.155 1.184zM51.44 24.723a.621.621 0 01-.155-.02.6.6 0 01-.426-.736l.505-1.885-1.884-.5a.6.6 0 01-.426-.736.61.61 0 01.736-.426l2.465.659a.6.6 0 01.426.738l-.659 2.465a.606.606 0 01-.582.441zM44.716 65.57H32.685a4.211 4.211 0 110-8.422h12.031a.6.6 0 110 1.2H32.685a3.008 3.008 0 000 6.016h12.031a.6.6 0 010 1.2z" fill="#263238"/><path d="M42.31 67.976a.6.6 0 01-.425-1.027l1.98-1.98-1.98-1.982a.602.602 0 01.851-.851l2.406 2.406a.6.6 0 010 .851l-2.406 2.406a.6.6 0 01-.426.177zM56.548 46.923a.6.6 0 01-.6-.6v-1.2a.6.6 0 011.2 0v1.2a.6.6 0 01-.6.6zM56.548 43.313a.6.6 0 01-.6-.6V33.69a.6.6 0 011.2 0v9.023a.6.6 0 01-.6.6zM60.157 35.493a.6.6 0 01-.6-.6v-1.2a.6.6 0 011.2 0v1.2a.6.6 0 01-.6.6zM60.157 46.923a.6.6 0 01-.6-.6v-9.024a.6.6 0 011.2 0v9.024a.6.6 0 01-.6.6z" fill="#263238"/></svg>