<svg xmlns="http://www.w3.org/2000/svg" width="91.681" height="73.053" viewBox="0 0 91.681 73.053"><g transform="translate(17.906 45.836)"><rect width="48.705" height="25.785" rx="2.5" transform="translate(.717 .716)" fill="#59d8fd"/><path d="M45.841 27.218H4.298a4.3 4.3 0 01-4.3-4.3V4.297a4.3 4.3 0 014.3-4.3h41.543a4.3 4.3 0 014.3 4.3V22.92a4.3 4.3 0 01-4.3 4.298zM4.298 1.433a2.868 2.868 0 00-2.865 2.865V22.92a2.868 2.868 0 002.865 2.865h41.543a2.868 2.868 0 002.865-2.865V4.297a2.868 2.868 0 00-2.865-2.865z" fill="#263238"/></g><path d="M70.195 54.789h3.581a1.432 1.432 0 011.433 1.432v6.446a1.433 1.433 0 01-1.433 1.432h-3.581" fill="#edfafe"/><path d="M73.775 64.817h-3.581a.716.716 0 110-1.432h3.581a.716.716 0 00.716-.716v-6.446a.717.717 0 00-.716-.716h-3.581a.716.716 0 110-1.432h3.581a2.15 2.15 0 012.149 2.149v6.446a2.15 2.15 0 01-2.149 2.147zM63.03 68.756a.717.717 0 01-.716-.716V50.85a.717.717 0 011.433 0v17.19a.716.716 0 01-.717.716zM22.92 68.756a.717.717 0 01-.716-.716V50.85a.717.717 0 011.433 0v17.19a.716.716 0 01-.717.716zM49.422 36.523h-1.433a.716.716 0 010-1.432h1.433a.716.716 0 110 1.432zM45.124 36.523H23.636a.716.716 0 110-1.432h21.488a.716.716 0 110 1.432zM11.46 32.225h-1.432a.716.716 0 110-1.432h1.432a.716.716 0 110 1.432zM35.813 32.225H14.325a.716.716 0 010-1.432h21.488a.716.716 0 110 1.432zM83.802 54.829a5.021 5.021 0 01-5.014-5.014 4.867 4.867 0 01.275-1.6 7.878 7.878 0 119.479 0 4.865 4.865 0 01.274 1.6 5.02 5.02 0 01-5.014 5.014zm0-19.339a6.435 6.435 0 00-3.47 11.861.719.719 0 01.258.915 3.532 3.532 0 00-.37 1.549 3.582 3.582 0 107.163 0 3.539 3.539 0 00-.367-1.549.717.717 0 01.258-.915 6.436 6.436 0 00-3.472-11.861zM69.478 34.051a10.718 10.718 0 01-10.688-9.714 12.176 12.176 0 1111.712-11.711 10.688 10.688 0 016.576 3.089 10.739 10.739 0 01-7.6 18.336zM59.462 22.857a.716.716 0 01.716.7 9.312 9.312 0 109.542-9.542.717.717 0 01-.695-.785 10.743 10.743 0 10-9.634 9.634.565.565 0 01.071-.007zM15.758 55.506H.716a.716.716 0 110-1.432h15.041a.716.716 0 110 1.432z" fill="#263238"/><g><path d="M15.758 64.817H.716a.716.716 0 110-1.432h15.041a.716.716 0 110 1.432z" fill="#263238"/></g></svg>