<svg xmlns="http://www.w3.org/2000/svg" width="67.856" height="75.481" viewBox="0 0 67.856 75.481"><path d="M39.521 69.431l6.527-6.526 2.242 4.486-4.284 4.282zM3.806 31.471l4.282-4.282 4.486 2.243-6.526 6.529zM25.959 9.319l4.282-4.283 4.486 2.243-6.526 6.525z" fill="#263238"/><path d="M60.884 38.319L35.69 13.125l6.973-6.972 20.27 20.27v11.9z" fill="#59d8fd"/><path d="M0 42.663L42.663 0l25.194 25.192V40.44L32.819 75.48zm1.635 0l31.183 31.18 33.88-33.881v-14.29L42.662 1.636z" fill="#263238"/><path d="M6.152 42.662l26.666-26.663 26.663 26.663-26.663 26.665zm16.406 14.77l10.26 10.257 2.873-2.874-10.259-10.262zm3.692-3.693l10.259 10.258 2.874-2.874-10.259-10.258zm3.693-3.693l10.259 10.258 2.873-2.873-10.257-10.258zm3.691-3.691l10.26 10.258 2.874-2.874L36.51 43.481zm-14.769 7.384l2.874 2.874 25.026-25.027-2.874-2.874zM7.789 42.662L18.047 52.92l2.873-2.874-10.255-10.258zm29.538 0L47.584 52.92l2.874-2.874-10.257-10.258zm3.692-3.691l10.258 10.257 2.874-2.873-10.258-10.258zm-29.538 0l10.258 10.257 2.875-2.873-10.259-10.258zm3.693-3.693l10.258 10.258 2.874-2.874-10.258-10.258zm29.538 0l10.253 10.258 2.874-2.874-10.254-10.258zm-25.847-3.692l10.258 10.257 2.875-2.873-10.26-10.258zm3.693-3.693l10.26 10.258 2.873-2.874-10.258-10.258zm3.692-3.691l10.259 10.257 2.874-2.873-10.259-10.258zm3.693-3.693l10.259 10.258 2.873-2.874-10.257-10.258z" fill="#263238"/></svg>