<svg xmlns="http://www.w3.org/2000/svg" width="73.553" height="78.75" viewBox="0 0 73.553 78.75"><path fill="#59d8fd" d="M1 9.235h15v18H1z"/><path d="M29.081 76.406v-2.237H22.37v-4.474h-7.3a15.073 15.073 0 110-30.145h38.027a9.534 9.534 0 100-19.067H34.618v1.7a2.773 2.773 0 01-2.769 2.77H16.724v2.237H0V8.23h16.724v2.236h15.125a2.773 2.773 0 012.769 2.77v1.7H53.1a15.073 15.073 0 010 30.145H15.073a9.534 9.534 0 100 19.068h7.3v-4.475h6.711v-2.236h5.538v2.236h7.4l5.591 2.237h20.558v10.013H47.608l-5.591 2.236h-7.4v2.237zm1.064-1.065h3.409v-3.408h-3.409zm4.474-2.236h6.765v-2.237h1.064v1.983l4.528-1.811v-8.227l-4.528-1.812v6.457h-1.064v-6.71h-6.765zm-11.184 0h5.646V60.748h-5.646zm40.263-2.237h3.41V62.99h-3.41zm-8.947 0h7.883V62.99h-7.883zm-6.71 0h5.65V62.99h-5.65zm-17.9 0h3.409v-3.409h-3.409zM15.07 40.617a14.007 14.007 0 000 28.014h7.3v-3.408h-7.3a10.6 10.6 0 010-21.2h38.027a14.007 14.007 0 100-28.014H34.618v3.409H53.1a10.6 10.6 0 010 21.2zM30.145 66.39h3.409v-3.4h-3.409zm0-4.474h3.409v-3.409h-3.409zM1.067 26.126H15.66V9.296H1.067zm15.657-2.236h15.125a1.707 1.707 0 001.705-1.705v-8.947a1.706 1.706 0 00-1.705-1.7H16.724z" fill="#263238"/><path fill="#263238" d="M4.475 21.656h7.775v1.065H4.475zM4.475 12.709h7.775v1.064H4.475zM4.475 17.182h7.775v1.065H4.475zM44.788 78.75h-1.172a.586.586 0 010-1.172h1.172a.586.586 0 010 1.172zM60.023 78.75H47.132a.586.586 0 010-1.172h12.891a.586.586 0 110 1.172zM67.057 75.234h-1.172a.586.586 0 010-1.172h1.172a.586.586 0 010 1.172zM63.539 75.234H50.648a.586.586 0 010-1.172h12.891a.586.586 0 010 1.172z"/><g><path d="M2.288 4.688H1.116a.586.586 0 010-1.172h1.172a.586.586 0 010 1.172zM17.524 4.688H4.632a.586.586 0 010-1.172h12.892a.586.586 0 010 1.172zM24.557 1.172h-1.172a.586.586 0 110-1.172h1.172a.586.586 0 110 1.172zM21.04 1.172H8.148a.586.586 0 010-1.172H21.04a.586.586 0 010 1.172z" fill="#263238"/></g><g><path d="M72.967 4.133h-4.688a.586.586 0 110-1.172h4.688a.586.586 0 110 1.172z" fill="#263238"/></g><g><path d="M70.623 6.476a.586.586 0 01-.586-.586V1.202a.586.586 0 111.172 0V5.89a.586.586 0 01-.586.586z" fill="#263238"/></g><g><path d="M64.763 12.337h-4.688a.586.586 0 010-1.172h4.688a.586.586 0 110 1.172z" fill="#263238"/></g><g><path d="M62.419 14.681a.586.586 0 01-.586-.586V9.407a.586.586 0 111.172 0v4.688a.586.586 0 01-.586.586z" fill="#263238"/></g></svg>