<svg xmlns="http://www.w3.org/2000/svg" width="88.434" height="75.998" viewBox="0 0 88.434 75.998"><path d="M4.841 75.998H.691a.691.691 0 010-1.382h4.15a.691.691 0 010 1.382zM87.743 75.998H7.6a.691.691 0 010-1.382h80.143a.691.691 0 010 1.382z" fill="#263238"/><path d="M80.833 69.78h3.15a1.382 1.382 0 001.31-.945l1.69-5.067a2.765 2.765 0 00-1.391-3.348l-.629-.312-.922-4.4a6.91 6.91 0 00-5.578-5.388l-11.274-1.961-16.065-12.975a6.909 6.909 0 00-4.34-1.534H18.911a6.909 6.909 0 00-5.606 2.87L6.91 45.595H2.441a1.382 1.382 0 00-1.186 2.092l2.891 4.817v7.6a2.792 2.792 0 00-2.73 3.377l1.114 5.2a1.384 1.384 0 001.351 1.093H6.91" fill="#59d8fd"/><path d="M83.985 70.471h-3.15a.691.691 0 010-1.382h3.15a.691.691 0 00.655-.473l1.689-5.067a2.083 2.083 0 00-1.043-2.512l-.627-.311a.689.689 0 01-.369-.478l-.923-4.4a6.185 6.185 0 00-5.019-4.85l-11.275-1.961a.67.67 0 01-.315-.144L50.693 35.92a6.227 6.227 0 00-3.906-1.381H18.91a6.233 6.233 0 00-5.043 2.583l-6.395 8.875a.691.691 0 01-.561.288H2.442a.692.692 0 00-.593 1.047l2.891 4.816a.693.693 0 01.1.355v7.6a.691.691 0 01-.691.691 2.1 2.1 0 00-2.056 2.542l1.115 5.2a.7.7 0 00.676.546h3.029a.691.691 0 010 1.382H3.884a2.082 2.082 0 01-2.026-1.639l-1.115-5.2a3.482 3.482 0 012.715-4.144v-6.778L.667 48.051a2.072 2.072 0 011.777-3.138h4.115l6.189-8.588a7.613 7.613 0 016.164-3.157h27.876a7.622 7.622 0 014.775 1.687l15.924 12.862 11.1 1.932a7.557 7.557 0 016.137 5.926l.854 4.068.328.162a3.472 3.472 0 011.74 4.187l-1.689 5.067a2.071 2.071 0 01-1.972 1.412z" fill="#263238"/><path fill="#40c4ff" d="M30.401 69.78h26.944"/><path d="M57.344 70.471H30.401a.691.691 0 010-1.382h26.943a.691.691 0 010 1.382z" fill="#263238"/><g transform="translate(59.417 56.653)"><circle cx="8.982" cy="8.982" r="8.982" transform="translate(.691 .691)" fill="#fff"/><path d="M9.672 19.34a9.672 9.672 0 119.672-9.673 9.685 9.685 0 01-9.672 9.673zm0-17.963a8.291 8.291 0 108.291 8.291 8.3 8.3 0 00-8.291-8.286z" fill="#263238"/></g><path d="M69.089 71.852a5.527 5.527 0 115.527-5.527 5.534 5.534 0 01-5.527 5.527zm0-9.672a4.145 4.145 0 104.145 4.145 4.149 4.149 0 00-4.145-4.145z" fill="#263238"/><g transform="translate(8.983 56.653)"><circle cx="8.982" cy="8.982" r="8.982" transform="translate(.691 .691)" fill="#fff"/><path d="M9.672 19.34a9.672 9.672 0 119.672-9.673 9.684 9.684 0 01-9.672 9.673zm0-17.963a8.291 8.291 0 108.291 8.291 8.3 8.3 0 00-8.291-8.286z" fill="#263238"/></g><path d="M18.655 71.852a5.527 5.527 0 115.527-5.527 5.533 5.533 0 01-5.527 5.527zm0-9.672a4.145 4.145 0 104.145 4.145 4.149 4.149 0 00-4.145-4.145z" fill="#263238"/><path d="M21.268 39.548l-1.555 4.145a3.455 3.455 0 003.235 4.668H67.19L53.503 37.307h-29a3.454 3.454 0 00-3.235 2.241z" fill="#fff"/><path d="M67.19 49.057H22.948a4.145 4.145 0 01-3.881-5.6l1.555-4.146a4.163 4.163 0 013.881-2.689h29a.691.691 0 01.434.153l13.687 11.054a.691.691 0 01-.434 1.229zM24.503 38.003a2.776 2.776 0 00-2.588 1.793l-1.555 4.145a2.764 2.764 0 002.588 3.734h42.288L53.26 38.003zm-3.235 1.55zM65.809 55.892a.69.69 0 01-.691-.691v-4.075a.691.691 0 111.382 0v4.075a.691.691 0 01-.691.691zM37.999 67.707a.691.691 0 01-.691-.691v-15.89a.691.691 0 111.382 0v15.89a.69.69 0 01-.691.691z" fill="#263238"/><path d="M37.999 49.057a.691.691 0 01-.691-.691V37.312a.691.691 0 111.382 0v11.054a.69.69 0 01-.691.691zM12.609 55.271H9.847a2.075 2.075 0 01-2.073-2.073v-2.763a2.075 2.075 0 012.073-2.073h2.762a2.074 2.074 0 012.073 2.073v2.763a2.074 2.074 0 01-2.073 2.073zm-2.762-5.527a.691.691 0 00-.691.691v2.763a.692.692 0 00.691.691h2.762a.692.692 0 00.691-.691v-2.763a.691.691 0 00-.691-.691z" fill="#263238"/><path d="M84.964 60.107l-.922-4.4a6.873 6.873 0 00-.35-1.13h-3.087a1.382 1.382 0 00-1.237 2l1.765 3.528h3.83z" fill="#fff"/><path d="M84.963 60.798h-3.825a.694.694 0 01-.619-.383l-1.763-3.526a2.072 2.072 0 011.854-3h3.087a.692.692 0 01.641.435 7.469 7.469 0 01.384 1.245l.922 4.4a.685.685 0 01-.14.578.694.694 0 01-.541.251zm-3.4-1.382h2.552l-.748-3.563a5.476 5.476 0 00-.156-.582h-2.6a.69.69 0 00-.618 1zM49.801 64.252a.692.692 0 01-.691-.691v-6.623l-3.253-3.253a.691.691 0 01.977-.977l3.454 3.454a.691.691 0 01.2.489v5.95l5.309-1.77a.691.691 0 01.437 1.311l-6.218 2.073a.7.7 0 01-.215.037z" fill="#263238"/><path d="M41.511 61.488a.628.628 0 01-.135-.014l-10.363-2.073a.691.691 0 01.271-1.354l10.131 2.024 8.078-4.038a.691.691 0 11.619 1.235l-8.291 4.145a.694.694 0 01-.31.075zM72.07 20.727h-7.046a4.15 4.15 0 01-3.6-2.089l-1.169-2.045a2.771 2.771 0 00-2.4-1.393H22.324a6.909 6.909 0 110-9.673h35.532a2.771 2.771 0 002.4-1.393l1.169-2.046A4.151 4.151 0 0165.025 0h7.046a4.155 4.155 0 013.6 2.088l2.164 3.787a.691.691 0 01-.6 1.034h-8.948l-1.727 3.454 1.727 3.455h8.948a.691.691 0 01.6 1.034l-2.164 3.786a4.154 4.154 0 01-3.601 2.089zm-50.044-6.909h35.831a4.155 4.155 0 013.6 2.088l1.169 2.046a2.767 2.767 0 002.4 1.393h7.046a2.769 2.769 0 002.4-1.393l1.574-2.752H67.86a.69.69 0 01-.618-.383l-2.073-4.145a.685.685 0 010-.618l2.073-4.146a.689.689 0 01.618-.381h8.186l-1.574-2.752a2.769 2.769 0 00-2.4-1.393h-7.046a2.767 2.767 0 00-2.4 1.393L61.457 4.82a4.154 4.154 0 01-3.6 2.089H22.026a.7.7 0 01-.514-.228 5.448 5.448 0 00-4.09-1.845 5.527 5.527 0 000 11.054 5.452 5.452 0 004.09-1.845.692.692 0 01.514-.227zm-4.6 0a3.454 3.454 0 113.454-3.455 3.458 3.458 0 01-3.458 3.455zm0-5.527a2.073 2.073 0 102.073 2.073 2.075 2.075 0 00-2.077-2.073z" fill="#263238"/><path d="M54.73 11.054H27.094a.691.691 0 110-1.382H54.73a.691.691 0 110 1.382z" fill="#263238"/><g><path d="M84.98 30.917a.691.691 0 01-.691-.691v-5.527a.691.691 0 111.382 0v5.527a.69.69 0 01-.691.691z" fill="#263238"/></g><g><path d="M87.743 28.154h-5.527a.691.691 0 010-1.382h5.527a.691.691 0 010 1.382z" fill="#263238"/></g><g><path d="M73.925 39.208a.691.691 0 01-.691-.691V32.99a.691.691 0 111.382 0v5.527a.69.69 0 01-.691.691z" fill="#263238"/></g><g><path d="M76.689 36.445h-5.527a.691.691 0 010-1.382h5.527a.691.691 0 010 1.382z" fill="#263238"/></g></svg>